<?xml version="1.0" encoding="UTF-8"?>
<!DOCTYPE svg PUBLIC "-//W3C//DTD SVG 1.1//EN" "http://www.w3.org/Graphics/SVG/1.1/DTD/svg11.dtd">
<!-- Creator: CorelDRAW 2021.5 -->
<svg xmlns="http://www.w3.org/2000/svg" xml:space="preserve" width="66px" height="70px" version="1.1" shape-rendering="geometricPrecision" text-rendering="geometricPrecision" image-rendering="optimizeQuality" fill-rule="evenodd" clip-rule="evenodd"
viewBox="0 0 9.942 10.423"
 xmlns:xlink="http://www.w3.org/1999/xlink"
 xmlns:xodm="http://www.corel.com/coreldraw/odm/2003">
 <g id="Capa_x0020_1">
  <metadata id="CorelCorpID_0Corel-Layer"/>
  <g id="_1908540442752">
   <path fill="#F41E1E" d="M0.38 8.582c-0.006,-0.011 -0.016,-0.024 -0.018,-0.033l-0.034 -0.306c0.007,-1.116 -0.051,-4.503 0.016,-5.028 0.472,-0.057 6.213,-0.002 7.476,-0.014 0.515,-0.005 0.374,-0.022 0.423,0.075l-0.003 1.951 0.32 0.093c0.002,-0.962 0.002,-1.917 0.002,-2.872 0,-1.163 -0.158,-1.546 -1.353,-1.553 -0.013,0.468 -0.119,0.917 -0.614,0.917 -0.506,0.001 -0.599,-0.449 -0.615,-0.916l-3.378 0.001c-0.018,1.24 -0.887,0.991 -1.112,0.628 -0.124,-0.2 -0.102,-0.376 -0.118,-0.628 -1.608,-0.011 -1.349,0.909 -1.349,2.352 0,1.24 0,2.481 0,3.721 0,1.321 -0.296,2.469 1.249,2.463 1.222,-0.005 2.564,0.055 3.77,-0.007l-0.161 -0.315c-0.828,-0.004 -1.654,0.001 -2.479,0.001 -0.714,0 -1.949,0.215 -2.022,-0.53z"/>
   <path fill="#F41E1E" d="M9.496 8.289c-0.193,1.039 -1.144,1.921 -2.419,1.685 -0.986,-0.182 -1.881,-1.183 -1.636,-2.419 0.195,-0.986 1.161,-1.851 2.384,-1.632 0.989,0.177 1.898,1.141 1.671,2.366zm0.418 0c0.217,-1.463 -0.845,-2.591 -2.087,-2.784 -1.464,-0.227 -2.608,0.843 -2.806,2.049 -0.243,1.472 0.844,2.661 2.054,2.84 1.498,0.221 2.651,-0.838 2.839,-2.105z"/>
   <path fill="#F41E1E" d="M7.251 8.1c0.179,0.076 1.577,0.123 1.727,-0.023 0.534,-0.521 -1.15,-0.4 -1.313,-0.4 -0.02,-0.445 0.119,-1.136 -0.167,-1.402 -0.428,0.022 -0.312,0.402 -0.312,0.789 0.001,0.323 -0.062,0.788 0.065,1.036z"/>
   <path fill="#F41E1E" d="M2.959 4.332c0,0.696 -0.206,0.613 0.904,0.613 0.358,0 0.267,-0.166 0.265,-0.518 -0.003,-0.672 0.195,-0.694 -0.93,-0.656 -0.345,0.012 -0.239,0.206 -0.239,0.561z"/>
   <path fill="#F41E1E" d="M1.352 4.568c0.001,0.503 -0.026,0.389 1.115,0.369 0.059,-0.131 0.028,-0.04 0.049,-0.181l0.006 -0.567c0.008,-0.452 0.043,-0.424 -0.4,-0.415 -0.927,0.019 -0.767,-0.172 -0.77,0.794z"/>
   <path fill="#F41E1E" d="M3.075 7.159c-0.06,0.147 -0.086,0.94 -0.003,1.054 0.098,0.116 -0.055,0.013 0.096,0.065 0.07,0.025 0.048,0.018 0.126,0.025l0.875 -0.035c0.062,-0.21 0.122,-0.983 -0.023,-1.106 -0.085,-0.072 -0.943,-0.049 -1.071,-0.003z"/>
   <path fill="#F41E1E" d="M4.852 4.945c0.885,0 0.891,0.085 0.885,-0.374 -0.011,-0.924 0.139,-0.789 -0.65,-0.795 -0.625,-0.004 -0.512,-0.095 -0.524,0.795 -0.005,0.339 -0.051,0.374 0.289,0.374z"/>
   <path fill="#F41E1E" d="M6.265 4.946c1.087,-0.001 0.891,0.077 0.891,-0.614 0,-0.613 0.188,-0.555 -0.891,-0.555 -0.387,-0.001 -0.279,0.168 -0.278,0.555 0.002,0.4 -0.121,0.614 0.278,0.614z"/>
   <path fill="#F41E1E" d="M1.449 7.132l-0.025 0.926c0.01,0.293 0.132,0.278 0.931,0.24l0.208 -0.019c0.074,-0.219 0.029,-0.872 0.008,-1.134l-1.122 -0.013z"/>
   <path fill="#F41E1E" d="M4.085 6.595c0.156,-0.164 0.072,-1.025 0.047,-1.117l-1.099 -0.02c-0.045,0.172 -0.078,1.003 0.002,1.108 0.073,0.097 0.934,0.076 1.05,0.029z"/>
   <path fill="#F41E1E" d="M1.416 6.594c0.205,0.052 1.048,0.167 1.124,-0.104l-0.016 -1.01 -1.093 -0.024c-0.082,0.271 -0.064,0.873 -0.015,1.138z"/>
   <path fill="#F41E1E" d="M6.47 0.036c-0.196,0.063 -0.242,0.097 -0.262,0.336 -0.048,0.554 -0.095,1.398 0.547,1.201 0.328,-0.101 0.239,-0.563 0.241,-0.963 0.002,-0.376 -0.062,-0.724 -0.526,-0.574z"/>
   <path fill="#F41E1E" d="M1.852 0.038c-0.353,0.109 -0.262,0.332 -0.264,0.95 -0.002,0.384 0.097,0.724 0.55,0.584 0.326,-0.101 0.239,-0.563 0.242,-0.962 0.002,-0.399 -0.071,-0.712 -0.528,-0.572z"/>
   <path fill="#F41E1E" d="M4.946 6.617c0.205,-0.26 0.365,-0.579 0.615,-0.773 0.179,-0.139 0.223,-0.08 0.188,-0.334 -0.175,-0.108 -0.888,-0.084 -1.113,-0.027 -0.062,0.232 -0.032,0.494 -0.035,0.735 -0.004,0.383 -0.042,0.419 0.345,0.399z"/>
   <path fill="darkgray" d="M0.38 8.582l-0.004 -5.334c0.795,0.02 7.414,-0.06 7.867,0.028 -0.049,-0.097 0.092,-0.08 -0.423,-0.075 -1.263,0.012 -7.004,-0.043 -7.476,0.014 -0.067,0.525 -0.009,3.912 -0.016,5.028l0.034 0.306c0.002,0.009 0.012,0.022 0.018,0.033z"/>
  </g>
 </g>
</svg>
