<?xml version="1.0" encoding="UTF-8"?>
<!DOCTYPE svg PUBLIC "-//W3C//DTD SVG 1.1//EN" "http://www.w3.org/Graphics/SVG/1.1/DTD/svg11.dtd">
<!-- Creator: CorelDRAW 2021.5 -->
<svg xmlns="http://www.w3.org/2000/svg" xml:space="preserve" width="47px" height="50px" version="1.1" shape-rendering="geometricPrecision" text-rendering="geometricPrecision" image-rendering="optimizeQuality" fill-rule="evenodd" clip-rule="evenodd"
viewBox="0 0 1.014 1.063"
 xmlns:xlink="http://www.w3.org/1999/xlink"
 xmlns:xodm="http://www.corel.com/coreldraw/odm/2003">
 <g id="Capa_x0020_1">
  <metadata id="CorelCorpID_0Corel-Layer"/>
  <g id="_1943626843280">
   <path fill="white" d="M0.039 0.876c-0.001,-0.002 -0.002,-0.003 -0.002,-0.004l-0.004 -0.031c0.001,-0.114 -0.005,-0.459 0.002,-0.513 0.048,-0.006 0.634,0 0.763,-0.001 0.052,-0.001 0.038,-0.003 0.043,0.007l0 0.199 0.032 0.01c0.001,-0.098 0.001,-0.196 0.001,-0.293 0,-0.119 -0.017,-0.158 -0.139,-0.159 -0.001,0.048 -0.012,0.094 -0.062,0.094 -0.052,0 -0.061,-0.046 -0.063,-0.094l-0.345 0c-0.001,0.127 -0.09,0.102 -0.113,0.065 -0.013,-0.021 -0.01,-0.039 -0.012,-0.065 -0.164,-0.001 -0.138,0.093 -0.138,0.24 0,0.127 0,0.254 0,0.38 0,0.135 -0.03,0.252 0.128,0.251 0.124,0 0.261,0.006 0.384,0l-0.016 -0.032c-0.084,-0.001 -0.169,0 -0.253,0 -0.073,0 -0.199,0.022 -0.206,-0.054z"/>
   <path fill="white" d="M0.969 0.846c-0.02,0.106 -0.117,0.196 -0.247,0.172 -0.101,-0.019 -0.192,-0.121 -0.167,-0.247 0.02,-0.101 0.119,-0.189 0.243,-0.167 0.101,0.018 0.194,0.117 0.171,0.242zm0.042 0c0.023,-0.15 -0.086,-0.265 -0.212,-0.284 -0.15,-0.023 -0.267,0.086 -0.287,0.209 -0.025,0.15 0.086,0.271 0.21,0.289 0.153,0.023 0.27,-0.085 0.289,-0.214z"/>
   <path fill="white" d="M0.74 0.826c0.018,0.008 0.161,0.013 0.176,-0.002 0.055,-0.053 -0.117,-0.041 -0.134,-0.041 -0.002,-0.045 0.012,-0.116 -0.017,-0.143 -0.044,0.003 -0.032,0.041 -0.032,0.081 0,0.033 -0.006,0.08 0.007,0.105z"/>
   <path fill="white" d="M0.302 0.442c0,0.071 -0.021,0.063 0.092,0.063 0.037,0 0.027,-0.017 0.027,-0.053 0,-0.069 0.02,-0.071 -0.095,-0.067 -0.035,0.001 -0.024,0.021 -0.024,0.057z"/>
   <path fill="white" d="M0.138 0.466c0,0.051 -0.003,0.04 0.114,0.038 0.006,-0.014 0.003,-0.004 0.005,-0.019l0 -0.058c0.001,-0.046 0.005,-0.043 -0.04,-0.042 -0.095,0.002 -0.079,-0.017 -0.079,0.081z"/>
   <path fill="white" d="M0.314 0.73c-0.006,0.015 -0.009,0.096 -0.001,0.108 0.01,0.012 -0.005,0.001 0.01,0.007 0.007,0.002 0.005,0.001 0.013,0.002l0.089 -0.003c0.007,-0.022 0.013,-0.101 -0.002,-0.113 -0.009,-0.008 -0.096,-0.005 -0.109,-0.001z"/>
   <path fill="white" d="M0.495 0.505c0.09,0 0.091,0.008 0.09,-0.039 -0.001,-0.094 0.015,-0.08 -0.066,-0.081 -0.064,0 -0.052,-0.009 -0.053,0.081 -0.001,0.035 -0.006,0.039 0.029,0.039z"/>
   <path fill="white" d="M0.639 0.505c0.111,0 0.091,0.007 0.091,-0.063 0,-0.063 0.019,-0.057 -0.091,-0.057 -0.039,0 -0.028,0.017 -0.028,0.057 0,0.041 -0.012,0.063 0.028,0.063z"/>
   <path fill="white" d="M0.148 0.728l-0.003 0.094c0.001,0.03 0.014,0.028 0.095,0.025l0.021 -0.002c0.008,-0.023 0.003,-0.089 0.001,-0.116l-0.114 -0.001z"/>
   <path fill="white" d="M0.417 0.673c0.016,-0.017 0.007,-0.105 0.005,-0.114l-0.113 -0.002c-0.004,0.017 -0.007,0.102 0.001,0.113 0.007,0.01 0.095,0.008 0.107,0.003z"/>
   <path fill="white" d="M0.145 0.673c0.02,0.005 0.106,0.017 0.114,-0.011l-0.002 -0.103 -0.111 -0.002c-0.008,0.027 -0.007,0.089 -0.001,0.116z"/>
   <path fill="white" d="M0.66 0.004c-0.02,0.006 -0.025,0.01 -0.027,0.034 -0.005,0.056 -0.009,0.143 0.056,0.122 0.034,-0.01 0.025,-0.057 0.025,-0.098 0,-0.038 -0.007,-0.074 -0.054,-0.058z"/>
   <path fill="white" d="M0.189 0.004c-0.036,0.011 -0.027,0.034 -0.027,0.097 0,0.039 0.01,0.074 0.056,0.059 0.033,-0.01 0.025,-0.057 0.025,-0.098 0,-0.04 -0.007,-0.072 -0.054,-0.058z"/>
   <path fill="white" d="M0.505 0.675c0.021,-0.026 0.037,-0.059 0.062,-0.079 0.019,-0.014 0.023,-0.008 0.02,-0.034 -0.018,-0.011 -0.091,-0.008 -0.114,-0.003 -0.006,0.024 -0.003,0.051 -0.004,0.075 0,0.039 -0.004,0.043 0.036,0.041z"/>
   <path fill="white" d="M0.039 0.876l-0.001 -0.545c0.081,0.002 0.757,-0.006 0.803,0.003 -0.005,-0.01 0.009,-0.008 -0.043,-0.007 -0.129,0.001 -0.715,-0.005 -0.763,0.001 -0.007,0.054 -0.001,0.399 -0.002,0.513l0.004 0.031c0,0.001 0.001,0.002 0.002,0.004z"/>
  </g>
 </g>
</svg>
