<?xml version="1.0" encoding="UTF-8"?>
<!DOCTYPE svg PUBLIC "-//W3C//DTD SVG 1.1//EN" "http://www.w3.org/Graphics/SVG/1.1/DTD/svg11.dtd">
<!-- Creator: CorelDRAW 2021.5 -->
<svg xmlns="http://www.w3.org/2000/svg" xml:space="preserve" width="55px" height="57px" version="1.1" shape-rendering="geometricPrecision" text-rendering="geometricPrecision" image-rendering="optimizeQuality" fill-rule="evenodd" clip-rule="evenodd"
viewBox="0 0 3.554 3.7"
 xmlns:xlink="http://www.w3.org/1999/xlink"
 xmlns:xodm="http://www.corel.com/coreldraw/odm/2003">
 <g id="Capa_x0020_1">
  <metadata id="CorelCorpID_0Corel-Layer"/>
  <g id="_1908540444240">
   <path fill="#F41E1E" d="M1.252 2.474c-0.396,0.167 -0.339,0.439 -0.323,0.874 0.017,0.441 0.459,0.342 0.845,0.342 0.411,0 0.834,0.101 0.845,-0.363 0.009,-0.394 0.082,-0.687 -0.324,-0.853 -0.351,0.259 -0.691,0.252 -1.043,0z"/>
   <path fill="#F41E1E" d="M1.264 1.949c0.103,0.652 1.111,0.53 1.021,-0.159 -0.036,-0.274 -0.288,-0.476 -0.586,-0.437 -0.283,0.038 -0.481,0.305 -0.435,0.596z"/>
   <path fill="#F41E1E" d="M1.854 0.384l0.157 0.037c0.005,0.032 0.007,0.1 0.002,0.138 -0.021,0.139 -0.108,0.153 -0.282,0.132 -0.092,-0.011 -0.089,-0.044 -0.077,-0.16 0.013,-0.115 0.004,-0.042 0.034,-0.086l0.148 -0.242c0.094,0.08 0.013,0.084 0.018,0.181zm-0.251 0.51c0.046,0.058 0.114,0.132 0.171,0.181 0.056,-0.049 0.125,-0.123 0.17,-0.182 0.379,-0.004 0.315,-0.074 0.315,-0.425 0,-0.499 0.107,-0.468 -0.673,-0.468 -0.371,0 -0.298,0.1 -0.298,0.447 0,0.371 -0.071,0.44 0.315,0.447z"/>
   <path fill="#F41E1E" d="M0.759 2.961c-0.01,-0.452 0.105,-0.375 0.348,-0.594 -0.012,-0.118 -0.038,-0.103 -0.189,-0.208 -0.364,0.155 -0.309,0.188 -0.709,-0.002 -0.163,0.086 -0.206,0.139 -0.206,0.272 0,0.302 -0.049,0.52 0.246,0.532 0.166,0.006 0.342,-0.003 0.51,0z"/>
   <path fill="#F41E1E" d="M2.44 2.367c0.246,0.22 0.359,0.135 0.348,0.594 0.603,-0.011 0.817,0.144 0.756,-0.573 -0.01,-0.116 -0.126,-0.191 -0.205,-0.231 -0.118,0.055 -0.171,0.123 -0.355,0.122 -0.183,-0.001 -0.235,-0.07 -0.355,-0.121 -0.146,0.102 -0.177,0.095 -0.189,0.209z"/>
   <path fill="#F41E1E" d="M2.906 1.423c-0.459,0.129 -0.262,0.769 0.17,0.661 0.432,-0.108 0.266,-0.784 -0.17,-0.661z"/>
   <path fill="#F41E1E" d="M0.498 1.416c-0.453,0.091 -0.317,0.768 0.139,0.671 0.427,-0.091 0.296,-0.758 -0.139,-0.671z"/>
   <path fill="#F41E1E" d="M2.904 0.963c0,-0.242 0.039,-0.107 0.117,-0.326 0.019,0.017 0.025,-0.015 0.033,0.056 0,0.001 -0.008,0.054 -0.01,0.067 0.059,0.017 0.068,0.008 0.115,0.042l-0.032 0.171 -0.223 -0.01zm-0.253 -0.307c0,0.633 0.015,0.379 0.215,0.472 0.006,0.003 0.106,0.096 0.118,0.108 0.081,-0.062 0.07,-0.107 0.208,-0.123 0.181,-0.022 0.131,-0.134 0.131,-0.478 0,-0.044 -0.01,-0.078 -0.018,-0.111 -0.114,-0.041 -0.236,-0.026 -0.384,-0.027 -0.179,-0.001 -0.27,-0.033 -0.27,0.159z"/>
   <path fill="#F41E1E" d="M0.689 0.968l-0.209 0.004c-0.004,-0.18 0.012,-0.143 0.081,-0.256 0.024,-0.039 0.017,-0.042 0.044,-0.077 0.046,0.06 0.026,0.043 0.007,0.131l0.116 0.008c-0.002,0.086 0.004,0.132 -0.039,0.19zm-0.446 -0.445c-0.028,0.111 -0.018,0.256 -0.018,0.383 -0.001,0.149 -0.019,0.189 0.13,0.207 0.161,0.019 0.118,0.054 0.209,0.123 0.13,-0.093 0.029,-0.102 0.207,-0.123 0.154,-0.019 0.125,-0.085 0.125,-0.228l-0.017 -0.357c-0.094,-0.045 -0.546,-0.058 -0.636,-0.005z"/>
  </g>
 </g>
</svg>
