<?xml version="1.0" encoding="UTF-8"?>
<!DOCTYPE svg PUBLIC "-//W3C//DTD SVG 1.1//EN" "http://www.w3.org/Graphics/SVG/1.1/DTD/svg11.dtd">
<!-- Creator: CorelDRAW 2021.5 -->
<svg xmlns="http://www.w3.org/2000/svg" xml:space="preserve" width="55px" height="57px" version="1.1" shape-rendering="geometricPrecision" text-rendering="geometricPrecision" image-rendering="optimizeQuality" fill-rule="evenodd" clip-rule="evenodd"
viewBox="0 0 1.664 1.732"
 xmlns:xlink="http://www.w3.org/1999/xlink"
 xmlns:xodm="http://www.corel.com/coreldraw/odm/2003">
 <g id="Capa_x0020_1">
  <metadata id="CorelCorpID_0Corel-Layer"/>
  <g id="_1943620846224">
   <path fill="white" d="M0.586 1.158c-0.185,0.078 -0.159,0.206 -0.151,0.41 0.008,0.206 0.215,0.16 0.395,0.16 0.193,0 0.391,0.047 0.396,-0.17 0.004,-0.185 0.039,-0.322 -0.151,-0.4 -0.165,0.122 -0.324,0.118 -0.489,0z"/>
   <path fill="white" d="M0.592 0.913c0.048,0.305 0.52,0.248 0.478,-0.075 -0.017,-0.128 -0.135,-0.223 -0.275,-0.204 -0.132,0.017 -0.225,0.142 -0.203,0.279z"/>
   <path fill="white" d="M0.868 0.18l0.074 0.017c0.002,0.015 0.003,0.047 0,0.065 -0.009,0.065 -0.05,0.071 -0.132,0.062 -0.043,-0.005 -0.041,-0.021 -0.035,-0.075 0.005,-0.054 0.001,-0.02 0.015,-0.041l0.07 -0.113c0.044,0.037 0.006,0.039 0.008,0.085zm-0.118 0.238c0.022,0.028 0.054,0.063 0.08,0.085 0.027,-0.023 0.059,-0.057 0.08,-0.085 0.177,-0.002 0.148,-0.034 0.148,-0.199 0,-0.234 0.05,-0.219 -0.316,-0.219 -0.173,0 -0.139,0.047 -0.139,0.209 0,0.174 -0.033,0.206 0.147,0.209z"/>
   <path fill="white" d="M0.355 1.387c-0.004,-0.212 0.05,-0.176 0.163,-0.279 -0.005,-0.055 -0.017,-0.048 -0.088,-0.097 -0.171,0.072 -0.145,0.088 -0.332,-0.001 -0.077,0.04 -0.096,0.065 -0.096,0.127 -0.001,0.142 -0.024,0.244 0.115,0.249 0.077,0.003 0.16,-0.001 0.238,0.001z"/>
   <path fill="white" d="M1.143 1.108c0.115,0.103 0.168,0.063 0.163,0.279 0.281,-0.006 0.382,0.067 0.353,-0.269 -0.004,-0.054 -0.059,-0.089 -0.096,-0.108 -0.055,0.026 -0.08,0.058 -0.166,0.057 -0.086,0 -0.11,-0.033 -0.166,-0.056 -0.069,0.047 -0.083,0.044 -0.088,0.097z"/>
   <path fill="white" d="M1.36 0.666c-0.214,0.061 -0.122,0.36 0.08,0.31 0.202,-0.051 0.125,-0.367 -0.08,-0.31z"/>
   <path fill="white" d="M0.233 0.663c-0.212,0.043 -0.148,0.359 0.065,0.314 0.2,-0.043 0.139,-0.355 -0.065,-0.314z"/>
   <path fill="white" d="M1.36 0.451c0,-0.113 0.018,-0.05 0.054,-0.153 0.009,0.008 0.012,-0.007 0.016,0.026 0,0.001 -0.004,0.026 -0.005,0.032 0.028,0.008 0.032,0.004 0.054,0.02l-0.015 0.08 -0.104 -0.005zm-0.119 -0.144c0,0.296 0.007,0.177 0.101,0.221 0.002,0.002 0.049,0.045 0.055,0.051 0.038,-0.029 0.033,-0.05 0.097,-0.058 0.085,-0.01 0.062,-0.062 0.062,-0.224 0,-0.02 -0.005,-0.036 -0.009,-0.052 -0.053,-0.019 -0.11,-0.012 -0.179,-0.012 -0.084,-0.001 -0.127,-0.016 -0.127,0.074z"/>
   <path fill="white" d="M0.322 0.453l-0.097 0.002c-0.002,-0.084 0.005,-0.067 0.038,-0.12 0.011,-0.018 0.007,-0.019 0.02,-0.036 0.022,0.028 0.013,0.02 0.003,0.062l0.055 0.003c-0.001,0.041 0.002,0.062 -0.019,0.089zm-0.208 -0.208c-0.013,0.052 -0.009,0.12 -0.009,0.179 0,0.07 -0.009,0.089 0.061,0.097 0.075,0.009 0.056,0.025 0.098,0.058 0.061,-0.044 0.013,-0.048 0.097,-0.058 0.072,-0.009 0.059,-0.04 0.059,-0.107l-0.009 -0.167c-0.043,-0.021 -0.255,-0.027 -0.297,-0.002z"/>
  </g>
 </g>
</svg>
