<?xml version="1.0" encoding="UTF-8"?>
<!DOCTYPE svg PUBLIC "-//W3C//DTD SVG 1.1//EN" "http://www.w3.org/Graphics/SVG/1.1/DTD/svg11.dtd">
<!-- Creator: CorelDRAW 2021.5 -->
<svg xmlns="http://www.w3.org/2000/svg" xml:space="preserve" width="108px" height="62px" version="1.1" shape-rendering="geometricPrecision" text-rendering="geometricPrecision" image-rendering="optimizeQuality" fill-rule="evenodd" clip-rule="evenodd"
viewBox="0 0 27.234 15.822"
 xmlns:xlink="http://www.w3.org/1999/xlink"
 xmlns:xodm="http://www.corel.com/coreldraw/odm/2003">
 <g id="Capa_x0020_1">
  <metadata id="CorelCorpID_0Corel-Layer"/>
  <g id="_1907755123824">
   <path fill="#F41E1E" d="M17.288 9.587c0.482,-0.137 3.614,1.747 7.489,-0.893 1.581,-1.076 0.535,-2.106 0.209,-2.186 -0.4,-0.1 -0.651,0.128 -0.882,0.284 -2.251,1.515 -4.953,1.676 -7.229,0.2 -1.706,-1.107 -1.223,-0.938 -3.736,-0.94 -2.227,0 -1.872,0.562 -3.391,1.285 -4.09,1.95 -6.662,-0.84 -7.29,-0.852 -0.665,-0.014 -1.012,0.852 -0.716,1.486 0.231,0.495 0.764,0.788 1.274,1.079 1.051,0.601 2.281,1.035 3.715,1.06 3.154,0.054 3.243,-1.511 3.24,0.351 -0.003,1.494 -0.229,3.153 0.534,4.235 0.915,1.297 2.113,1.087 3.596,1.087 0.868,0 1.277,0.023 1.925,-0.406 1.952,-1.291 0.986,-3.927 1.262,-5.79z"/>
   <path fill="#F41E1E" d="M8.721 10.45c-1.753,0.288 -2.856,0.311 -4.495,-0.259 -2.136,-0.744 -1.458,-1.552 -2.721,1.026 -0.288,0.588 -0.547,1.131 -0.837,1.726 -0.208,0.427 -0.815,1.364 -0.635,1.862 0.218,0.605 1.188,0.848 1.587,0.265 0.184,-0.268 0.727,-1.407 0.844,-1.736 0.167,0.221 0.077,1.445 1.389,2.141 0.696,0.37 2.236,0.451 3.072,0.198 2.312,-0.702 1.779,-3.202 1.796,-5.223z"/>
   <path fill="#F41E1E" d="M18.515 10.448c-0.019,2.092 -0.469,4.573 1.842,5.239 0.84,0.243 2.375,0.154 3.059,-0.239 0.402,-0.231 0.648,-0.472 0.905,-0.857 0.383,-0.575 0.291,-1.011 0.407,-1.276 0.307,0.411 0.567,1.263 0.864,1.729 0.399,0.623 1.422,0.382 1.62,-0.285 0.141,-0.475 -0.428,-1.396 -0.662,-1.849 -2.277,-4.397 -0.966,-3.637 -3.58,-2.708 -1.609,0.572 -2.724,0.513 -4.455,0.246z"/>
   <path fill="#F41E1E" d="M13.293 0.021c-1.455,0.175 -2.65,1.435 -2.473,3.111 0.152,1.439 1.494,2.691 3.172,2.467 1.411,-0.188 2.606,-1.474 2.421,-3.11 -0.162,-1.435 -1.483,-2.666 -3.12,-2.468z"/>
   <path fill="#F41E1E" d="M23.472 5.387c0.197,-1.355 -0.816,-2.429 -1.952,-2.608 -1.393,-0.221 -2.511,0.8 -2.671,1.97 -0.421,3.059 4.174,3.717 4.623,0.638z"/>
   <path fill="#F41E1E" d="M3.755 5.334c0.122,1.196 1.194,2.189 2.544,2.067 1.211,-0.109 2.222,-1.183 2.099,-2.549 -0.11,-1.222 -1.221,-2.229 -2.574,-2.089 -1.203,0.124 -2.209,1.197 -2.069,2.571z"/>
  </g>
 </g>
</svg>
