<?xml version="1.0" encoding="UTF-8"?>
<!DOCTYPE svg PUBLIC "-//W3C//DTD SVG 1.1//EN" "http://www.w3.org/Graphics/SVG/1.1/DTD/svg11.dtd">
<!-- Creator: CorelDRAW 2021.5 -->
<svg xmlns="http://www.w3.org/2000/svg" xml:space="preserve" width="74px" height="73px" version="1.1" shape-rendering="geometricPrecision" text-rendering="geometricPrecision" image-rendering="optimizeQuality" fill-rule="evenodd" clip-rule="evenodd"
viewBox="0 0 5.124 5.032"
 xmlns:xlink="http://www.w3.org/1999/xlink"
 xmlns:xodm="http://www.corel.com/coreldraw/odm/2003">
 <g id="Capa_x0020_1">
  <metadata id="CorelCorpID_0Corel-Layer"/>
  <g id="_1943562805136">
   <path fill="white" d="M0.458 4.275c0.002,-0.035 0.014,-0.048 0.053,-0.034 0.021,0.019 0.01,0.07 0.013,0.104l-0.06 -0.002c-0.023,-0.066 0.044,-0.055 0.029,-0.083 -0.024,0.011 0.012,0.012 -0.035,0.015zm1.645 -1.174c0.016,0.027 0.12,0.442 0.13,0.481l0.257 0.969c0.025,0.094 0.041,0.161 -0.006,0.25 -0.052,0.097 -0.196,0.195 -0.282,0.088 -0.025,-0.031 -0.105,-0.287 -0.122,-0.336 -0.053,-0.152 -0.106,-0.307 -0.155,-0.46 -0.012,-0.036 -0.036,-0.077 -0.025,-0.12 0.009,-0.041 0.019,-0.082 0.028,-0.123l0.117 -0.498c0.018,-0.081 0.044,-0.17 0.058,-0.251zm2.393 -0.138l0.277 0.001 0 0.237 -0.277 0 0 -0.238zm-4.145 0l0.277 0 0 0.238 -0.277 0 0 -0.238zm1.008 0l0.678 0c-0.023,0.12 -0.099,0.389 -0.133,0.528 -0.086,0.351 -0.18,0.7 -0.264,1.049 -0.039,0.164 -0.059,0.363 -0.264,0.394 -0.064,0.01 -0.15,0 -0.182,-0.055 -0.012,-0.02 -0.017,-0.037 -0.018,-0.065 0,-0.054 0.043,-0.212 0.056,-0.274l0.237 -1.08c0.034,-0.158 0.033,-0.128 -0.029,-0.171 -0.096,-0.065 -0.088,-0.219 -0.081,-0.326zm-1.188 -0.286c0.038,-0.01 0.254,-0.003 0.313,-0.003 1.177,0 2.354,0 3.532,0 0.08,0 0.916,-0.008 0.954,0.007 0.084,0.033 0.08,0.161 -0.011,0.185 -0.043,0.011 -0.259,0.003 -0.319,0.003 -1.392,0 -2.783,0 -4.175,0 -0.056,0 -0.278,0.008 -0.313,-0.007 -0.083,-0.036 -0.081,-0.158 0.019,-0.185zm2.11 -0.097c0.007,-0.025 0.017,-0.052 0.026,-0.076 0.013,-0.036 0.004,-0.047 0.024,-0.077 0.017,-0.025 0.043,-0.113 0.055,-0.147 0.017,-0.05 0.035,-0.1 0.053,-0.149 0.012,-0.033 0.038,-0.123 0.054,-0.149 0.008,0.005 0.002,0 0.011,0.009l0.218 0.255c0.007,0.008 0.01,0.009 0.018,0.018l0.24 0.279c0.012,0.015 0.02,0.02 0.031,0.038l-0.73 -0.001zm0.316 -1.292c-0.013,0.011 -0.007,0.001 -0.01,0.021l0.001 0.054c-0.021,0.002 -0.03,-0.008 -0.05,0.009l0.145 0.184c0.025,0.031 0.047,0.06 0.072,0.092l0.435 0.556c0.036,0.043 0.119,0.142 0.137,0.194 0.038,0.105 -0.046,0.179 -0.128,0.182 -0.066,0.002 -0.081,-0.025 -0.11,-0.055l-0.534 -0.617c-0.008,-0.009 -0.011,-0.014 -0.019,-0.023 -0.008,-0.009 -0.012,-0.011 -0.02,-0.021l-0.135 -0.153c-0.008,-0.009 -0.011,-0.015 -0.018,-0.024 -0.036,-0.042 -0.1,-0.015 -0.087,0.039 0.007,0.026 0.074,0.088 0.095,0.113 0.008,0.008 0.011,0.015 0.018,0.024 0.016,0.017 0.035,0.023 0.028,0.049l-0.236 0.668 -0.766 0 0.173 -0.464c0.057,-0.155 0.117,-0.307 0.175,-0.464 0.022,-0.06 0.104,-0.3 0.14,-0.34 0.023,-0.026 0.056,-0.049 0.096,-0.061 0.056,-0.016 0.244,-0.007 0.315,-0.007 0.102,-0.001 0.157,0.028 0.208,0.106 0.005,-0.071 0.052,-0.042 0.035,-0.071 -0.023,0.009 0.009,0.014 -0.034,0.013 0.002,-0.049 0.02,-0.029 0.04,-0.044l-0.045 -0.042c-0.059,-0.049 -0.125,-0.056 -0.204,-0.056 -0.088,0 -0.261,-0.01 -0.337,0.01 -0.191,0.049 -0.218,0.24 -0.284,0.41 -0.064,0.168 -0.128,0.336 -0.19,0.507 -0.024,0.064 -0.175,0.456 -0.189,0.503 -0.324,0.007 -0.656,0 -0.982,0 -0.073,0 -0.167,-0.01 -0.227,0.02 -0.137,0.069 -0.128,0.247 -0.043,0.315 0.07,0.056 0.094,0.042 0.194,0.049 0.023,0.181 -0.044,0.33 0.058,0.331 0.042,0.001 0.086,-0.001 0.128,0.001l0.001 1.559c0,0.087 -0.017,0.172 0.046,0.174 0.07,0.002 0.047,-0.123 0.047,-0.178l0 -1.11c0,-0.144 0.007,-0.302 0,-0.444 0.105,-0.02 0.186,0.042 0.186,-0.075 -0.001,-0.086 0.001,-0.173 -0.001,-0.259l0.544 0c-0.008,0.086 -0.01,0.168 0.015,0.247 0.019,0.064 0.064,0.134 0.111,0.159 -0.004,0.042 -0.066,0.308 -0.08,0.374 -0.066,0.299 -0.143,0.628 -0.203,0.925 -0.014,0.069 -0.036,0.123 -0.019,0.196 0.029,0.117 0.143,0.184 0.289,0.165 0.291,-0.039 0.315,-0.309 0.37,-0.533 0.022,-0.088 0.068,-0.285 0.091,-0.359 0.013,0.022 0.054,0.156 0.066,0.191 0.021,0.066 0.044,0.131 0.066,0.196 0.023,0.068 0.043,0.128 0.066,0.195 0.018,0.054 0.045,0.15 0.068,0.194 0.106,0.202 0.379,0.105 0.456,-0.063 0.005,-0.01 0.005,-0.009 0.012,-0.02 0.077,-0.128 0.009,-0.299 -0.024,-0.425l-0.164 -0.616c-0.036,-0.137 -0.075,-0.276 -0.109,-0.413 -0.018,-0.07 -0.038,-0.138 -0.055,-0.207 -0.017,-0.063 -0.044,-0.143 -0.054,-0.206l2.235 0.001c0,0.086 0,0.172 0,0.258 -0.001,0.091 0.039,0.074 0.185,0.073 0.004,0.518 0,1.045 0,1.565 0,0.058 -0.021,0.169 0.048,0.169 0.04,0 0.046,-0.03 0.046,-0.068l0 -1.666c0.044,0 0.09,0.001 0.133,0 0.093,-0.003 0.034,-0.155 0.054,-0.331 0.052,-0.003 0.088,0.005 0.137,-0.014 0.112,-0.045 0.156,-0.187 0.085,-0.288 -0.019,-0.027 -0.048,-0.052 -0.084,-0.067 -0.039,-0.016 -0.086,-0.015 -0.132,-0.015 -0.494,0 -0.993,-0.004 -1.485,0 0.011,-0.028 0.031,-0.038 0.04,-0.101 0.016,-0.121 -0.065,-0.204 -0.124,-0.28l-0.356 -0.456c-0.041,-0.05 -0.079,-0.102 -0.119,-0.152 -0.027,-0.034 -0.215,-0.271 -0.233,-0.303z"/>
   <path fill="white" d="M2.944 0.438c0,0.06 -0.049,0.283 -0.071,0.334 -0.019,0.044 -0.057,0.099 -0.082,0.119 -0.284,0.228 -0.57,-0.007 -0.57,-0.251 0,-0.062 0.049,-0.282 0.07,-0.335 0.036,-0.089 0.112,-0.162 0.206,-0.193 0.062,-0.021 0.106,-0.026 0.177,-0.011 0.074,0.015 0.146,0.059 0.189,0.114 0.051,0.064 0.081,0.133 0.081,0.223zm-0.394 -0.435c-0.144,0.017 -0.248,0.106 -0.306,0.191 -0.033,0.049 -0.054,0.11 -0.069,0.178 -0.014,0.064 -0.035,0.14 -0.044,0.205 -0.039,0.286 0.197,0.529 0.483,0.495 0.212,-0.025 0.337,-0.182 0.376,-0.367 0.014,-0.066 0.033,-0.138 0.043,-0.204 0.043,-0.289 -0.199,-0.531 -0.483,-0.498z"/>
   <path fill="white" d="M2.522 1.35c0.004,0.006 0.003,0.005 0.007,0.01l0.009 0.012c0.02,-0.017 0.029,-0.007 0.05,-0.009l-0.001 -0.054c0.003,-0.02 -0.003,-0.01 0.01,-0.021 -0.011,-0.01 -0.009,-0.005 -0.018,-0.018 -0.007,-0.009 -0.011,-0.016 -0.016,-0.022 -0.02,0.015 -0.038,-0.005 -0.04,0.044 0.043,0.001 0.011,-0.004 0.034,-0.013 0.017,0.029 -0.03,0 -0.035,0.071z"/>
   <path fill="white" d="M0.458 4.275c0.047,-0.003 0.011,-0.004 0.035,-0.015 0.015,0.028 -0.052,0.017 -0.029,0.083l0.06 0.002c-0.003,-0.034 0.008,-0.085 -0.013,-0.104 -0.039,-0.014 -0.051,-0.001 -0.053,0.034z"/>
  </g>
 </g>
</svg>
