<?xml version="1.0" encoding="UTF-8"?>
<!DOCTYPE svg PUBLIC "-//W3C//DTD SVG 1.1//EN" "http://www.w3.org/Graphics/SVG/1.1/DTD/svg11.dtd">
<!-- Creator: CorelDRAW 2021.5 -->
<svg xmlns="http://www.w3.org/2000/svg" xml:space="preserve" width="74px" height="73px" version="1.1" shape-rendering="geometricPrecision" text-rendering="geometricPrecision" image-rendering="optimizeQuality" fill-rule="evenodd" clip-rule="evenodd"
viewBox="0 0 8.297 8.148"
 xmlns:xlink="http://www.w3.org/1999/xlink"
 xmlns:xodm="http://www.corel.com/coreldraw/odm/2003">
 <g id="Capa_x0020_1">
  <metadata id="CorelCorpID_0Corel-Layer"/>
  <g id="_1908546213040">
   <path fill="#F41E1E" d="M0.742 6.922c0.002,-0.057 0.022,-0.078 0.085,-0.056 0.034,0.031 0.016,0.114 0.022,0.169l-0.098 -0.003c-0.037,-0.108 0.071,-0.089 0.047,-0.134 -0.039,0.018 0.02,0.02 -0.056,0.024zm2.663 -1.9c0.025,0.042 0.194,0.714 0.211,0.778l0.416 1.568c0.04,0.152 0.066,0.261 -0.01,0.405 -0.085,0.158 -0.317,0.315 -0.457,0.144 -0.041,-0.051 -0.17,-0.465 -0.197,-0.545 -0.086,-0.247 -0.171,-0.498 -0.251,-0.745 -0.019,-0.058 -0.058,-0.124 -0.041,-0.194 0.016,-0.067 0.031,-0.133 0.046,-0.199l0.189 -0.807c0.029,-0.131 0.071,-0.276 0.094,-0.405zm3.874 -0.224l0.449 0.001 0 0.384 -0.449 0 0 -0.385zm-6.711 0l0.449 0 -0.001 0.385 -0.448 0 0 -0.385zm1.632 -0.001l1.097 0.001c-0.037,0.194 -0.159,0.629 -0.214,0.855 -0.139,0.567 -0.292,1.133 -0.427,1.697 -0.064,0.266 -0.096,0.588 -0.429,0.639 -0.102,0.016 -0.241,0 -0.294,-0.09 -0.02,-0.032 -0.028,-0.059 -0.028,-0.105 -0.001,-0.087 0.069,-0.342 0.09,-0.443l0.383 -1.749c0.055,-0.255 0.054,-0.207 -0.047,-0.276 -0.155,-0.106 -0.141,-0.356 -0.131,-0.529zm-1.924 -0.462c0.062,-0.017 0.413,-0.005 0.507,-0.005 1.906,0 3.813,0 5.719,0 0.13,0 1.484,-0.013 1.545,0.011 0.137,0.054 0.13,0.26 -0.018,0.299 -0.07,0.018 -0.419,0.005 -0.517,0.005 -2.253,0 -4.506,0 -6.759,0 -0.09,0 -0.451,0.013 -0.508,-0.012 -0.133,-0.057 -0.131,-0.255 0.031,-0.298zm3.417 -0.157c0.011,-0.041 0.028,-0.085 0.042,-0.123 0.022,-0.059 0.007,-0.076 0.039,-0.125 0.027,-0.041 0.07,-0.184 0.089,-0.238 0.028,-0.082 0.058,-0.162 0.086,-0.241 0.019,-0.055 0.062,-0.2 0.087,-0.242 0.014,0.008 0.003,0 0.018,0.015l0.353 0.412c0.012,0.014 0.017,0.016 0.029,0.03l0.389 0.451c0.019,0.025 0.033,0.033 0.05,0.061l-1.182 0zm0.511 -2.092c-0.021,0.018 -0.011,0.002 -0.016,0.034l0.003 0.088c-0.035,0.002 -0.049,-0.014 -0.081,0.014l0.233 0.297c0.042,0.051 0.077,0.097 0.118,0.149l0.704 0.9c0.057,0.071 0.192,0.23 0.222,0.314 0.06,0.171 -0.075,0.29 -0.207,0.295 -0.108,0.004 -0.132,-0.04 -0.178,-0.089l-0.865 -0.999c-0.013,-0.014 -0.018,-0.023 -0.031,-0.037 -0.013,-0.015 -0.019,-0.017 -0.032,-0.034l-0.219 -0.248c-0.013,-0.014 -0.018,-0.024 -0.03,-0.038 -0.058,-0.068 -0.161,-0.024 -0.139,0.063 0.01,0.042 0.118,0.142 0.154,0.182 0.012,0.014 0.016,0.025 0.028,0.039 0.025,0.027 0.056,0.038 0.046,0.079l-0.382 1.083 -1.24 -0.001 0.279 -0.751c0.093,-0.25 0.19,-0.497 0.283,-0.751 0.036,-0.097 0.168,-0.486 0.228,-0.551 0.037,-0.041 0.09,-0.08 0.154,-0.098 0.091,-0.026 0.396,-0.012 0.511,-0.013 0.164,0 0.254,0.046 0.337,0.173 0.007,-0.115 0.083,-0.069 0.056,-0.116 -0.037,0.016 0.015,0.023 -0.056,0.023 0.005,-0.08 0.034,-0.048 0.065,-0.073l-0.072 -0.067c-0.096,-0.08 -0.203,-0.091 -0.33,-0.091 -0.143,0 -0.423,-0.016 -0.547,0.016 -0.309,0.08 -0.352,0.389 -0.458,0.664 -0.105,0.272 -0.208,0.544 -0.309,0.82 -0.038,0.105 -0.284,0.739 -0.305,0.815 -0.525,0.011 -1.063,0.001 -1.59,0.001 -0.118,0 -0.27,-0.017 -0.369,0.032 -0.22,0.111 -0.206,0.399 -0.069,0.509 0.113,0.091 0.152,0.069 0.314,0.08 0.037,0.293 -0.071,0.534 0.094,0.536 0.069,0.001 0.139,-0.002 0.208,0.001l0.001 2.525c0,0.141 -0.027,0.279 0.074,0.281 0.114,0.004 0.078,-0.198 0.078,-0.288l0 -1.797c0,-0.233 0.01,-0.489 -0.001,-0.719 0.17,-0.032 0.301,0.069 0.3,-0.121 0,-0.139 0.003,-0.28 0,-0.419l0.881 0c-0.014,0.139 -0.017,0.271 0.023,0.4 0.032,0.103 0.104,0.217 0.181,0.257 -0.007,0.067 -0.107,0.498 -0.131,0.605 -0.106,0.485 -0.231,1.017 -0.328,1.498 -0.022,0.111 -0.059,0.2 -0.03,0.318 0.046,0.19 0.231,0.297 0.467,0.266 0.472,-0.062 0.51,-0.5 0.599,-0.863 0.035,-0.142 0.11,-0.461 0.148,-0.581 0.021,0.035 0.088,0.252 0.106,0.31 0.035,0.106 0.072,0.211 0.107,0.317 0.037,0.11 0.071,0.207 0.107,0.316 0.029,0.087 0.073,0.243 0.11,0.313 0.172,0.327 0.614,0.171 0.739,-0.101 0.007,-0.017 0.008,-0.014 0.019,-0.032 0.125,-0.209 0.015,-0.486 -0.039,-0.689l-0.265 -0.997c-0.059,-0.223 -0.121,-0.448 -0.177,-0.67 -0.029,-0.113 -0.061,-0.222 -0.089,-0.334 -0.027,-0.103 -0.071,-0.232 -0.087,-0.333l3.618 0.001c-0.001,0.139 0.001,0.279 0,0.418 -0.001,0.148 0.063,0.12 0.3,0.118 0.006,0.839 0,1.692 0,2.534 0,0.094 -0.033,0.273 0.078,0.274 0.064,0 0.074,-0.05 0.074,-0.111l0 -2.697c0.071,0 0.145,0.002 0.216,0 0.15,-0.004 0.054,-0.251 0.086,-0.536 0.085,-0.005 0.143,0.008 0.222,-0.023 0.182,-0.073 0.253,-0.303 0.138,-0.466 -0.031,-0.044 -0.077,-0.085 -0.136,-0.109 -0.063,-0.026 -0.14,-0.023 -0.214,-0.023 -0.799,0 -1.607,-0.008 -2.403,0 0.017,-0.046 0.05,-0.062 0.064,-0.164 0.026,-0.197 -0.106,-0.331 -0.201,-0.453l-0.577 -0.738c-0.066,-0.083 -0.128,-0.166 -0.192,-0.246 -0.043,-0.055 -0.349,-0.441 -0.378,-0.491z"/>
   <path fill="#F41E1E" d="M4.767 0.709c0,0.097 -0.08,0.458 -0.115,0.541 -0.031,0.071 -0.093,0.161 -0.134,0.193 -0.46,0.369 -0.921,-0.012 -0.922,-0.407 0,-0.101 0.079,-0.457 0.114,-0.542 0.058,-0.144 0.181,-0.263 0.333,-0.313 0.1,-0.033 0.172,-0.042 0.286,-0.018 0.121,0.025 0.236,0.097 0.306,0.185 0.083,0.104 0.132,0.215 0.132,0.361zm-0.638 -0.704c-0.233,0.027 -0.402,0.172 -0.495,0.309 -0.054,0.079 -0.088,0.179 -0.113,0.289 -0.023,0.104 -0.055,0.226 -0.07,0.331 -0.064,0.463 0.319,0.857 0.782,0.802 0.343,-0.041 0.544,-0.295 0.608,-0.595 0.023,-0.106 0.054,-0.222 0.07,-0.329 0.07,-0.469 -0.322,-0.861 -0.782,-0.807z"/>
   <path fill="#F41E1E" d="M4.084 2.186c0.006,0.009 0.005,0.008 0.01,0.016l0.016 0.02c0.032,-0.028 0.046,-0.012 0.081,-0.014l-0.003 -0.088c0.005,-0.032 -0.005,-0.016 0.016,-0.034 -0.018,-0.017 -0.014,-0.009 -0.029,-0.03 -0.01,-0.014 -0.017,-0.025 -0.026,-0.036 -0.031,0.025 -0.06,-0.007 -0.065,0.073 0.071,0 0.019,-0.007 0.056,-0.023 0.027,0.047 -0.049,0.001 -0.056,0.116z"/>
   <path fill="#F41E1E" d="M0.742 6.922c0.076,-0.004 0.017,-0.006 0.056,-0.024 0.024,0.045 -0.084,0.026 -0.047,0.134l0.098 0.003c-0.006,-0.055 0.012,-0.138 -0.022,-0.169 -0.063,-0.022 -0.083,-0.001 -0.085,0.056z"/>
  </g>
 </g>
</svg>
