<?xml version="1.0" encoding="UTF-8"?>
<!DOCTYPE svg PUBLIC "-//W3C//DTD SVG 1.1//EN" "http://www.w3.org/Graphics/SVG/1.1/DTD/svg11.dtd">
<!-- Creator: CorelDRAW 2021.5 -->
<svg xmlns="http://www.w3.org/2000/svg" xml:space="preserve" width="68px" height="70px" version="1.1" shape-rendering="geometricPrecision" text-rendering="geometricPrecision" image-rendering="optimizeQuality" fill-rule="evenodd" clip-rule="evenodd"
viewBox="0 0 6.878 7.011"
 xmlns:xlink="http://www.w3.org/1999/xlink"
 xmlns:xodm="http://www.corel.com/coreldraw/odm/2003">
 <g id="Capa_x0020_1">
  <metadata id="CorelCorpID_0Corel-Layer"/>
  <g id="_1908467457088">
   <path fill="#F41E1E" d="M2.123 2.533l-0.082 0c0.003,-0.127 0.071,-0.281 0.082,-0.41 0.032,0.021 0.051,0.04 0.076,0.074 0.059,0.076 0.152,0.166 0.212,0.254 -0.07,0.017 -0.158,0.082 -0.288,0.082zm-0.315 -0.054c-0.075,-0.007 -0.241,-0.121 -0.26,-0.192 0.141,-0.038 0.365,-0.339 0.37,-0.342 -0.002,0.069 -0.04,0.193 -0.054,0.261 -0.016,0.074 -0.054,0.202 -0.056,0.273zm0.52 -0.507l0.411 0c-0.03,0.063 -0.029,0.132 -0.091,0.237 -0.028,0.047 -0.033,0.029 -0.046,0.078l-0.027 0c-0.015,-0.057 -0.202,-0.232 -0.247,-0.315zm-0.41 -0.055l0.004 0.004c-0.001,0 -0.006,-0.002 -0.004,-0.004zm0.643 -0.52c0.055,0.04 0.121,0.159 0.146,0.237 0.013,0.039 0.018,0.075 0.032,0.105l-0.438 0 0.26 -0.342zm-0.52 -0.219c0.144,0 0.235,0.019 0.328,0.068 -0.027,0.041 -0.247,0.364 -0.301,0.384 -0.031,-0.066 0.028,-0.329 -0.027,-0.452zm-1.082 -0.302c0.087,0 0.139,0.028 0.233,0.028 0.003,-0.045 0.018,-0.09 0.032,-0.132 0.018,-0.055 0.039,-0.08 0.05,-0.128 0.478,0.111 0.799,0.835 0.312,1.325 -0.234,0.234 -0.61,0.289 -0.906,0.145 -0.06,-0.03 -0.183,-0.114 -0.222,-0.161 -0.541,-0.645 -0.018,-1.35 0.569,-1.35 -0.006,0.073 -0.068,0.146 -0.068,0.273zm-0.959 0.48c0,0.384 0.149,0.673 0.399,0.861 0.126,0.093 0.223,0.142 0.401,0.188 0.268,0.069 0.41,-0.006 0.529,-0.009 0.016,0.063 0.082,0.105 0.126,0.148 0.236,0.234 0.652,0.301 0.983,0.154 0.068,-0.031 0.155,-0.082 0.209,-0.134 0.112,-0.108 0.175,-0.156 0.252,-0.323 0.278,-0.597 -0.163,-1.238 -0.71,-1.294 -0.447,-0.046 -0.043,0.112 -0.446,-0.293 -0.056,-0.056 -0.075,-0.074 -0.143,-0.117 -0.046,-0.03 -0.115,-0.08 -0.175,-0.085 0.056,-0.084 0.23,-0.207 0.342,-0.233 -0.021,-0.044 -0.071,-0.171 -0.082,-0.219 -0.141,0.033 -0.376,0.199 -0.454,0.299 -0.094,0.122 -0.065,0.053 -0.313,0.071 -0.474,0.036 -0.918,0.491 -0.918,0.986z"/>
   <path fill="#F41E1E" d="M2.315 4.724c0,0.165 0.182,0.076 0.343,0.191 0.178,0.128 0.064,0.371 -0.261,0.371 -0.048,0 -0.2,-0.049 -0.218,0.097 -0.014,0.109 -0.003,0.119 -0.034,0.308 -0.103,0.615 -0.09,0.419 -0.09,1.088l-0.699 0c0,-0.062 -0.018,-0.148 -0.027,-0.206l-0.074 -0.406 -0.319 -0.639c-0.056,-0.116 -0.055,-0.119 -0.182,-0.119 -0.135,0 -0.069,0.235 -0.072,0.257 -0.004,0.038 -0.035,0.104 -0.061,0.131 -0.085,0.084 -0.23,0.082 -0.316,0.006 -0.026,-0.023 -0.072,-0.107 -0.072,-0.147 0,-0.266 0.219,-0.149 0.219,-0.37 0,-0.036 -0.069,-0.086 -0.088,-0.145 -0.043,-0.133 0.019,-0.261 0.158,-0.293 0.089,-0.021 0.128,0.024 0.196,0.007 0.145,-0.038 0.059,-0.232 0.112,-0.369 0.086,-0.227 0.356,-0.287 0.556,-0.12 0.098,0.081 0.111,0.016 0.23,0.016 0.182,0 0.211,0.262 0.375,-0.009l0.023 -0.031c0.111,-0.116 0.383,-0.114 0.383,0.177 0,0.087 -0.082,0.118 -0.082,0.205zm-1.739 -0.164l0 0.041c-0.26,0 -0.466,0.219 -0.466,0.48 0,0.087 0.039,0.139 0.055,0.205 -0.186,0.124 -0.236,0.467 -0.038,0.668 0.273,0.278 0.668,0.088 0.709,-0.066l0.027 0c0.014,0.061 0.087,0.188 0.119,0.252 0.06,0.119 0.059,0.161 0.083,0.3 0.019,0.114 0.037,0.226 0.054,0.329 0.019,0.113 0.015,0.242 0.141,0.242l0.918 0c0.142,0 0.123,-0.159 0.123,-0.301 0,-0.598 -0.013,-0.443 0.08,-1.001 0.01,-0.06 0.028,-0.133 0.03,-0.19 0.168,0 0.252,-0.023 0.389,-0.118 0.08,-0.055 0.152,-0.156 0.173,-0.265 0.053,-0.277 -0.215,-0.482 -0.357,-0.494 0.06,-0.256 -0.028,-0.445 -0.206,-0.547 -0.145,-0.084 -0.317,-0.089 -0.473,0.005 -0.158,0.095 -0.058,0.112 -0.2,0.066 -0.04,-0.013 -0.058,-0.016 -0.107,-0.017 -0.032,-0.001 -0.093,0.004 -0.122,-0.001 -0.067,-0.012 -0.173,-0.16 -0.477,-0.105 -0.216,0.04 -0.455,0.258 -0.455,0.517z"/>
   <path fill="#F41E1E" d="M3.657 0.781l0 2.957c0,0.077 0.026,0.179 0.096,0.179l2.547 0c0.128,0 0.097,-0.124 0.113,-0.243 0.035,-0.258 -0.046,-0.691 -0.113,-0.935 -0.027,-0.097 -0.058,-0.172 -0.091,-0.266 -0.063,-0.179 -0.204,-0.421 -0.312,-0.578 -0.027,-0.038 -0.043,-0.077 -0.077,-0.101 -0.04,0.011 -0.153,0.101 -0.178,0.137 0.137,0.258 0.194,0.247 0.356,0.657 0.16,0.405 0.178,0.66 0.178,1.096l-2.273 0 0 -2.808c0.162,0 0.403,0.107 0.534,0.137 0.007,-0.08 0.061,-0.129 0.069,-0.219 -0.13,-0.062 -0.551,-0.178 -0.74,-0.178 -0.072,0 -0.109,0.088 -0.109,0.165z"/>
   <path fill="#F41E1E" d="M5.163 6.436c0,0.082 0.06,0.132 0.11,0.165 -0.011,0.021 -0.022,0.178 -0.178,0.178 -0.202,0 -0.136,-0.241 -0.201,-0.306 -0.073,-0.073 -0.306,0.014 -0.306,-0.215 0,-0.112 0.098,-0.145 0.178,-0.164 0.138,0.206 0.231,0.056 0.493,-0.082l0.093 0.099c-0.018,0.028 -0.189,0.309 -0.189,0.325zm-0.03 0.575l-0.07 0c-0.16,-0.013 -0.314,-0.122 -0.366,-0.342 -0.059,-0.014 -0.09,-0.02 -0.141,-0.05 -0.031,-0.018 -0.078,-0.053 -0.1,-0.079 -0.233,-0.277 -0.042,-0.679 0.31,-0.679 0.13,0 0.092,0.02 0.164,0.069 0.08,-0.043 0.153,-0.095 0.233,-0.137 0,-0.14 0.037,-0.544 0.09,-0.678l0.082 -0.164c0.042,-0.068 0.063,-0.089 0.119,-0.141 0.189,-0.176 0.385,-0.209 0.64,-0.209 0.641,0 0.998,0.719 0.644,1.219 -0.079,0.112 -0.153,0.177 -0.274,0.246 -0.116,0.066 -0.252,0.084 -0.423,0.097 -0.147,0.012 -0.31,0.04 -0.467,0.04 -0.048,0.072 -0.095,0.155 -0.137,0.233 0.036,0.055 0.068,0.054 0.068,0.151 0,0.257 -0.18,0.408 -0.372,0.424zm0.893 -2.177c0.572,0 0.756,0.533 0.503,0.873 -0.157,0.211 -0.412,0.225 -0.668,0.236 -0.279,0.012 -0.285,0.069 -0.373,-0.023 -0.112,-0.117 -0.105,-0.048 -0.069,-0.337 0.035,-0.272 0.004,-0.464 0.256,-0.647 0.085,-0.062 0.213,-0.102 0.351,-0.102z"/>
   <path fill="#F41E1E" d="M5.423 1.547c-0.026,0 -0.09,-0.03 -0.109,-0.041 0.007,-0.085 0.041,-0.178 0.123,-0.178 0.076,0 0.098,0.061 0.151,0.096 -0.028,0.042 -0.099,0.123 -0.165,0.123zm-0.506 -0.493c0.048,0.012 0.123,0.01 0.159,0.032 0.082,0.05 0.078,0.137 0.06,0.215 -0.28,0.067 -0.219,-0.198 -0.219,-0.247zm1.04 -0.356c0,-0.029 0.167,-0.208 0.315,0.014 -0.141,0.211 -0.315,0.061 -0.315,-0.014zm-0.274 -0.123c-0.095,-0.064 -0.082,-0.051 -0.082,-0.219 0.102,0 0.104,-0.023 0.165,0.013 0.041,0.025 0.046,0.055 0.068,0.097 -0.051,0.034 -0.097,0.074 -0.151,0.109zm-0.328 -0.15c0,0.147 0.062,0.255 0.15,0.314 -0.045,0.069 -0.112,0.129 -0.191,0.247 -0.091,-0.061 -0.117,-0.164 -0.397,-0.164 -0.087,0 -0.176,0.011 -0.206,0.068 -0.083,0.155 -0.082,0.624 0.315,0.657 -0.037,0.16 -0.094,0.324 -0.096,0.507 -0.002,0.188 -0.068,0.151 0.233,0.151 0,-0.286 0.053,-0.38 0.055,-0.48 0.433,0.209 0.63,-0.263 0.63,-0.287 0,-0.069 -0.08,-0.153 -0.119,-0.196 -0.051,-0.056 -0.119,-0.126 -0.196,-0.133 0.009,-0.034 0.167,-0.242 0.233,-0.26 0.036,0.137 0.366,0.34 0.619,0.086 0.282,-0.283 0.093,-0.305 -0.017,-0.469 0.104,-0.05 0.35,-0.096 0.507,-0.096l0 -0.233c-0.502,0 -0.691,0.169 -0.849,0.205 -0.068,-0.29 -0.513,-0.255 -0.603,-0.178 -0.035,0.03 -0.044,0.064 -0.051,0.113 -0.008,0.053 -0.017,0.099 -0.017,0.148z"/>
   <path fill="#F41E1E" d="M0.493 4.053c0.079,-0.001 0.145,-0.027 0.233,-0.027 0,-0.09 -0.027,-0.167 -0.027,-0.329l2.506 0 0 2.616c-0.052,-0.012 -0.121,-0.015 -0.169,-0.023l-0.329 -0.068c-0.059,-0.016 -0.099,-0.041 -0.16,-0.046 -0.003,0.046 -0.051,0.183 -0.068,0.219 0.098,0.047 0.36,0.106 0.492,0.124 0.078,0.011 0.342,0.052 0.405,0.021 0.036,-0.018 0.062,-0.055 0.062,-0.104l0 -2.862c0,-0.097 -0.08,-0.123 -0.178,-0.123l-2.643 0c-0.141,0 -0.18,0.081 -0.157,0.225 0.01,0.066 0.002,0.127 0.012,0.194 0.007,0.05 0.02,0.141 0.021,0.183z"/>
   <path fill="#F41E1E" d="M2.726 0.671c0,0.098 0.039,0.143 0.041,0.233l0.438 -0.069 0 2.164 -2.451 0c0.043,-0.186 0.098,-0.316 0.123,-0.424 -0.075,-0.007 -0.145,-0.063 -0.219,-0.069 -0.043,0.081 -0.1,0.275 -0.12,0.373 -0.023,0.109 -0.07,0.232 -0.023,0.303 0.015,0.023 0.045,0.05 0.074,0.05l2.739 0c0.066,0 0.11,-0.043 0.11,-0.11l0 -2.41c0,-0.115 -0.099,-0.109 -0.165,-0.109 -0.099,0 -0.199,0.01 -0.278,0.023l-0.269 0.045z"/>
   <path fill="#F41E1E" d="M3.657 4.327l0 2.027c0,0.314 0.293,0.123 0.493,0.123 0,-0.097 -0.039,-0.142 -0.041,-0.232 -0.083,0 -0.123,0.027 -0.206,0.027l0 -1.89 2.15 0 -0.016 0.082c0.048,0.004 0.186,0.052 0.222,0.069 0.021,-0.045 0.148,-0.384 -0.014,-0.384l-2.492 0c-0.07,0 -0.096,0.102 -0.096,0.178z"/>
   <path fill="#F41E1E" d="M1.562 5.272c-0.075,-0.02 -0.182,-0.205 -0.535,-0.205l0 0.233c0.134,0 0.243,0.054 0.324,0.115 0.189,0.142 0.142,0.379 0.142,0.679l0.233 0c0,-0.26 -0.04,-0.629 0.093,-0.797 0.025,-0.031 0.065,-0.069 0.105,-0.087 0.151,-0.072 0.144,0.099 0.144,-0.266 -0.269,0 -0.403,0.132 -0.506,0.328z"/>
   <path fill="#F41E1E" d="M1.055 1.397c0.175,0 0.345,-0.032 0.452,-0.192 -0.065,-0.043 -0.111,-0.092 -0.178,-0.137 -0.077,0.052 -0.099,0.096 -0.233,0.096 -0.131,0 -0.247,-0.127 -0.247,-0.26 -0.208,0 -0.296,-0.055 -0.209,0.168 0.064,0.165 0.238,0.325 0.415,0.325z"/>
   <path fill="#F41E1E" d="M5.615 5.423l0 0.041 0.233 0c0.021,-0.252 0.26,-0.139 0.287,-0.137 0.045,-0.084 0.106,-0.155 0.11,-0.205 -0.114,-0.027 -0.055,-0.055 -0.26,-0.055 -0.21,0 -0.37,0.198 -0.37,0.356z"/>
   <path fill="#F41E1E" d="M4.232 3.15c0,0.246 -0.041,0.205 0.205,0.205 0.061,0 0.041,-0.064 0.041,-0.205 0,-0.061 -0.064,-0.041 -0.205,-0.041 -0.032,0 -0.041,0.009 -0.041,0.041z"/>
   <path fill="#F41E1E" d="M4.232 2.232c0,0.246 -0.041,0.206 0.205,0.206 0.061,0 0.041,-0.064 0.041,-0.206 0,-0.061 -0.064,-0.041 -0.205,-0.041 -0.032,0 -0.041,0.01 -0.041,0.041z"/>
   <path fill="#F41E1E" d="M5.149 2.972c0,0.031 0.01,0.041 0.041,0.041l0.192 0 0 -0.247 -0.233 0 0 0.206z"/>
   <path fill="#F41E1E" d="M5.725 2.972c0,0.031 0.009,0.041 0.041,0.041l0.191 0 0 -0.247 -0.232 0 0 0.206z"/>
   <polygon fill="#F41E1E" points="5.149,2.547 5.382,2.547 5.382,2.314 5.149,2.314 "/>
   <polygon fill="#F41E1E" points="4.697,2.657 4.93,2.657 4.93,2.424 4.697,2.424 "/>
   <polygon fill="#F41E1E" points="4.122,2.889 4.355,2.889 4.355,2.657 4.122,2.657 "/>
   <polygon fill="#F41E1E" points="5.149,3.465 5.382,3.465 5.382,3.232 5.149,3.232 "/>
   <polygon fill="#F41E1E" points="4.697,3.122 4.93,3.122 4.93,2.889 4.697,2.889 "/>
  </g>
 </g>
</svg>
