<?xml version="1.0" encoding="UTF-8"?>
<!DOCTYPE svg PUBLIC "-//W3C//DTD SVG 1.1//EN" "http://www.w3.org/Graphics/SVG/1.1/DTD/svg11.dtd">
<!-- Creator: CorelDRAW 2021.5 -->
<svg xmlns="http://www.w3.org/2000/svg" xml:space="preserve" width="68px" height="70px" version="1.1" shape-rendering="geometricPrecision" text-rendering="geometricPrecision" image-rendering="optimizeQuality" fill-rule="evenodd" clip-rule="evenodd"
viewBox="0 0 3.459 3.526"
 xmlns:xlink="http://www.w3.org/1999/xlink"
 xmlns:xodm="http://www.corel.com/coreldraw/odm/2003">
 <g id="Capa_x0020_1">
  <metadata id="CorelCorpID_0Corel-Layer"/>
  <g id="_1943562831440">
   <path fill="white" d="M1.068 1.274l-0.042 0c0.002,-0.064 0.036,-0.141 0.042,-0.206 0.016,0.01 0.025,0.02 0.038,0.037 0.03,0.038 0.076,0.083 0.106,0.128 -0.035,0.008 -0.079,0.041 -0.144,0.041zm-0.159 -0.027c-0.037,-0.004 -0.121,-0.061 -0.131,-0.097 0.072,-0.019 0.184,-0.17 0.186,-0.172 0,0.035 -0.019,0.097 -0.027,0.131 -0.007,0.038 -0.027,0.102 -0.028,0.138zm0.262 -0.255l0.207 0c-0.016,0.031 -0.015,0.066 -0.046,0.119 -0.014,0.024 -0.017,0.015 -0.023,0.039l-0.014 0c-0.008,-0.028 -0.102,-0.116 -0.124,-0.158zm-0.207 -0.028l0.002 0.002c0,0 -0.002,-0.001 -0.002,-0.002zm0.324 -0.262c0.027,0.021 0.061,0.081 0.073,0.12 0.007,0.02 0.009,0.038 0.017,0.053l-0.221 0 0.131 -0.173zm-0.262 -0.11c0.073,0 0.119,0.01 0.166,0.035 -0.014,0.02 -0.125,0.183 -0.152,0.193 -0.016,-0.034 0.014,-0.166 -0.014,-0.228zm-0.544 -0.151c0.044,0 0.07,0.014 0.117,0.014 0.002,-0.023 0.009,-0.046 0.017,-0.067 0.009,-0.027 0.019,-0.04 0.025,-0.064 0.24,0.056 0.402,0.42 0.156,0.666 -0.117,0.118 -0.306,0.146 -0.455,0.073 -0.03,-0.015 -0.092,-0.057 -0.112,-0.081 -0.272,-0.324 -0.009,-0.679 0.287,-0.679 -0.003,0.037 -0.035,0.074 -0.035,0.138zm-0.482 0.241c0,0.193 0.075,0.338 0.201,0.433 0.063,0.047 0.112,0.072 0.201,0.095 0.135,0.034 0.207,-0.003 0.266,-0.005 0.009,0.032 0.042,0.053 0.064,0.074 0.118,0.118 0.328,0.152 0.494,0.078 0.034,-0.015 0.078,-0.041 0.105,-0.067 0.057,-0.055 0.088,-0.079 0.127,-0.163 0.14,-0.3 -0.082,-0.623 -0.357,-0.651 -0.225,-0.023 -0.022,0.057 -0.224,-0.147 -0.028,-0.028 -0.038,-0.037 -0.072,-0.059 -0.024,-0.015 -0.058,-0.04 -0.089,-0.043 0.029,-0.042 0.116,-0.104 0.173,-0.117 -0.011,-0.022 -0.036,-0.086 -0.042,-0.11 -0.071,0.017 -0.189,0.1 -0.228,0.151 -0.047,0.061 -0.032,0.026 -0.157,0.035 -0.238,0.018 -0.462,0.247 -0.462,0.496z"/>
   <path fill="white" d="M1.164 2.376c0,0.083 0.092,0.038 0.173,0.096 0.089,0.064 0.032,0.186 -0.132,0.186 -0.024,0 -0.1,-0.024 -0.109,0.049 -0.007,0.055 -0.002,0.06 -0.017,0.155 -0.052,0.309 -0.046,0.211 -0.046,0.547l-0.351 0c0,-0.031 -0.009,-0.074 -0.014,-0.103l-0.037 -0.204 -0.16 -0.322c-0.029,-0.058 -0.028,-0.06 -0.092,-0.06 -0.067,0 -0.035,0.119 -0.036,0.13 -0.002,0.018 -0.018,0.052 -0.031,0.065 -0.043,0.043 -0.115,0.042 -0.159,0.004 -0.013,-0.012 -0.036,-0.054 -0.036,-0.075 0,-0.133 0.11,-0.074 0.11,-0.186 0,-0.017 -0.034,-0.043 -0.044,-0.073 -0.021,-0.066 0.009,-0.131 0.079,-0.147 0.045,-0.01 0.065,0.012 0.099,0.003 0.073,-0.018 0.03,-0.116 0.056,-0.185 0.044,-0.114 0.18,-0.144 0.28,-0.06 0.049,0.04 0.056,0.008 0.116,0.008 0.091,0 0.106,0.132 0.188,-0.005l0.012 -0.015c0.056,-0.058 0.192,-0.058 0.192,0.089 0,0.044 -0.041,0.059 -0.041,0.103zm-0.875 -0.083l0 0.021c-0.13,0 -0.234,0.11 -0.234,0.241 0,0.044 0.02,0.07 0.028,0.103 -0.094,0.063 -0.119,0.235 -0.019,0.336 0.137,0.14 0.336,0.045 0.356,-0.033l0.014 0c0.007,0.031 0.044,0.095 0.06,0.127 0.03,0.06 0.03,0.081 0.041,0.151 0.01,0.057 0.019,0.113 0.028,0.165 0.009,0.057 0.007,0.122 0.071,0.122l0.461 0c0.072,0 0.062,-0.08 0.062,-0.151 0,-0.301 -0.006,-0.223 0.041,-0.504 0.005,-0.03 0.014,-0.067 0.014,-0.095 0.085,0 0.127,-0.012 0.196,-0.06 0.04,-0.027 0.077,-0.078 0.087,-0.133 0.027,-0.139 -0.108,-0.242 -0.179,-0.248 0.03,-0.129 -0.015,-0.224 -0.104,-0.276 -0.073,-0.042 -0.16,-0.044 -0.238,0.003 -0.079,0.048 -0.029,0.056 -0.101,0.033 -0.02,-0.006 -0.028,-0.008 -0.053,-0.008 -0.016,-0.001 -0.047,0.002 -0.062,-0.001 -0.033,-0.006 -0.087,-0.08 -0.239,-0.052 -0.109,0.019 -0.23,0.129 -0.23,0.259z"/>
   <path fill="white" d="M1.839 0.393l0 1.487c0,0.039 0.013,0.09 0.048,0.09l1.281 0c0.065,0 0.049,-0.062 0.057,-0.122 0.018,-0.13 -0.023,-0.348 -0.057,-0.471 -0.013,-0.048 -0.029,-0.086 -0.045,-0.133 -0.032,-0.09 -0.103,-0.212 -0.157,-0.291 -0.014,-0.019 -0.022,-0.039 -0.039,-0.051 -0.02,0.006 -0.077,0.051 -0.089,0.069 0.069,0.13 0.097,0.124 0.179,0.331 0.08,0.203 0.089,0.331 0.089,0.551l-1.143 0 0 -1.412c0.082,0 0.203,0.053 0.269,0.069 0.003,-0.041 0.03,-0.066 0.034,-0.111 -0.065,-0.031 -0.277,-0.089 -0.372,-0.089 -0.036,0 -0.055,0.044 -0.055,0.083z"/>
   <path fill="white" d="M2.597 3.237c0,0.041 0.03,0.066 0.055,0.083 -0.005,0.01 -0.011,0.089 -0.09,0.089 -0.101,0 -0.068,-0.121 -0.101,-0.154 -0.036,-0.036 -0.154,0.007 -0.154,-0.108 0,-0.056 0.05,-0.073 0.09,-0.082 0.069,0.103 0.116,0.028 0.248,-0.042l0.046 0.05c-0.008,0.014 -0.094,0.156 -0.094,0.164zm-0.015 0.289l-0.036 0c-0.08,-0.007 -0.158,-0.061 -0.184,-0.172 -0.03,-0.007 -0.045,-0.01 -0.071,-0.025 -0.015,-0.009 -0.039,-0.027 -0.05,-0.04 -0.117,-0.139 -0.021,-0.341 0.156,-0.341 0.065,0 0.046,0.01 0.083,0.034 0.04,-0.021 0.077,-0.047 0.117,-0.069 0,-0.07 0.018,-0.273 0.045,-0.34l0.041 -0.083c0.021,-0.034 0.032,-0.045 0.06,-0.071 0.095,-0.088 0.193,-0.105 0.322,-0.105 0.322,0 0.502,0.362 0.324,0.613 -0.04,0.056 -0.077,0.089 -0.138,0.124 -0.058,0.033 -0.127,0.042 -0.213,0.049 -0.074,0.005 -0.156,0.02 -0.235,0.02 -0.024,0.036 -0.048,0.077 -0.069,0.117 0.019,0.027 0.035,0.027 0.035,0.076 0,0.129 -0.091,0.205 -0.187,0.213zm0.449 -1.095c0.287,0 0.38,0.268 0.253,0.439 -0.079,0.107 -0.208,0.113 -0.336,0.119 -0.141,0.006 -0.144,0.035 -0.188,-0.012 -0.056,-0.059 -0.053,-0.024 -0.034,-0.169 0.017,-0.137 0.001,-0.233 0.128,-0.326 0.043,-0.031 0.107,-0.051 0.177,-0.051z"/>
   <path fill="white" d="M2.728 0.778c-0.014,0 -0.046,-0.015 -0.056,-0.02 0.004,-0.044 0.021,-0.09 0.062,-0.09 0.039,0 0.05,0.031 0.076,0.048 -0.014,0.021 -0.049,0.062 -0.082,0.062zm-0.255 -0.248c0.024,0.006 0.062,0.005 0.08,0.016 0.041,0.025 0.039,0.069 0.03,0.108 -0.141,0.034 -0.11,-0.099 -0.11,-0.124zm0.523 -0.179c0,-0.014 0.084,-0.104 0.159,0.007 -0.072,0.106 -0.159,0.031 -0.159,-0.007zm-0.138 -0.062c-0.048,-0.032 -0.041,-0.026 -0.041,-0.11 0.051,0 0.052,-0.011 0.083,0.007 0.021,0.012 0.023,0.027 0.034,0.048 -0.025,0.017 -0.049,0.037 -0.076,0.055zm-0.165 -0.076c0,0.075 0.031,0.129 0.076,0.159 -0.023,0.034 -0.057,0.064 -0.097,0.124 -0.045,-0.031 -0.058,-0.083 -0.199,-0.083 -0.044,0 -0.089,0.006 -0.104,0.034 -0.042,0.079 -0.041,0.315 0.159,0.331 -0.019,0.08 -0.048,0.163 -0.049,0.255 -0.001,0.095 -0.034,0.076 0.118,0.076 0,-0.144 0.026,-0.191 0.027,-0.241 0.218,0.104 0.317,-0.133 0.317,-0.145 0,-0.035 -0.04,-0.077 -0.06,-0.098 -0.025,-0.029 -0.06,-0.064 -0.098,-0.067 0.004,-0.017 0.084,-0.122 0.117,-0.131 0.018,0.069 0.184,0.171 0.311,0.043 0.142,-0.142 0.047,-0.153 -0.008,-0.236 0.052,-0.025 0.176,-0.048 0.255,-0.048l0 -0.117c-0.253,0 -0.348,0.085 -0.427,0.103 -0.035,-0.146 -0.258,-0.128 -0.304,-0.089 -0.017,0.015 -0.022,0.032 -0.025,0.056 -0.004,0.027 -0.009,0.05 -0.009,0.074z"/>
   <path fill="white" d="M0.248 2.039c0.04,-0.001 0.073,-0.014 0.117,-0.014 0,-0.045 -0.014,-0.084 -0.014,-0.165l1.261 0 0 1.315c-0.026,-0.006 -0.061,-0.008 -0.085,-0.012l-0.166 -0.034c-0.029,-0.008 -0.049,-0.02 -0.08,-0.023 -0.002,0.023 -0.026,0.092 -0.034,0.11 0.049,0.024 0.181,0.054 0.247,0.063 0.039,0.005 0.172,0.025 0.204,0.01 0.018,-0.009 0.031,-0.028 0.031,-0.052l0 -1.439c0,-0.05 -0.04,-0.062 -0.09,-0.062l-1.329 0c-0.071,0 -0.09,0.04 -0.079,0.113 0.006,0.033 0.001,0.064 0.006,0.097 0.004,0.026 0.011,0.071 0.011,0.093z"/>
   <path fill="white" d="M1.371 0.337c0,0.05 0.019,0.072 0.02,0.118l0.221 -0.035 0 1.088 -1.233 0c0.022,-0.093 0.049,-0.159 0.062,-0.213 -0.038,-0.003 -0.073,-0.032 -0.11,-0.035 -0.022,0.041 -0.05,0.139 -0.061,0.188 -0.011,0.055 -0.035,0.117 -0.011,0.152 0.008,0.012 0.023,0.025 0.037,0.025l1.378 0c0.033,0 0.055,-0.021 0.055,-0.055l0 -1.212c0,-0.058 -0.05,-0.055 -0.083,-0.055 -0.05,0 -0.1,0.005 -0.14,0.012l-0.135 0.022z"/>
   <path fill="white" d="M1.839 2.176l0 1.02c0,0.158 0.147,0.062 0.248,0.062 0,-0.05 -0.02,-0.072 -0.021,-0.117 -0.041,0 -0.061,0.013 -0.103,0.013l0 -0.95 1.081 0 -0.008 0.041c0.024,0.002 0.094,0.026 0.112,0.035 0.01,-0.023 0.074,-0.193 -0.007,-0.193l-1.254 0c-0.035,0 -0.048,0.051 -0.048,0.089z"/>
   <path fill="white" d="M0.785 2.652c-0.037,-0.011 -0.091,-0.104 -0.268,-0.104l0 0.117c0.067,0 0.122,0.028 0.162,0.058 0.096,0.072 0.072,0.191 0.072,0.342l0.117 0c0,-0.131 -0.02,-0.317 0.047,-0.401 0.012,-0.016 0.033,-0.035 0.052,-0.044 0.076,-0.036 0.073,0.05 0.073,-0.134 -0.135,0 -0.202,0.067 -0.255,0.166z"/>
   <path fill="white" d="M0.531 0.702c0.088,0 0.173,-0.016 0.227,-0.096 -0.033,-0.022 -0.056,-0.046 -0.09,-0.069 -0.038,0.026 -0.049,0.048 -0.117,0.048 -0.066,0 -0.124,-0.064 -0.124,-0.13 -0.105,0 -0.149,-0.028 -0.105,0.084 0.032,0.083 0.119,0.163 0.209,0.163z"/>
   <path fill="white" d="M2.824 2.727l0 0.021 0.117 0c0.011,-0.127 0.131,-0.07 0.145,-0.069 0.022,-0.042 0.053,-0.078 0.055,-0.103 -0.058,-0.014 -0.028,-0.028 -0.131,-0.028 -0.105,0 -0.186,0.1 -0.186,0.179z"/>
   <path fill="white" d="M2.128 1.584c0,0.124 -0.02,0.103 0.104,0.103 0.03,0 0.02,-0.032 0.02,-0.103 0,-0.031 -0.032,-0.021 -0.103,-0.021 -0.016,0 -0.021,0.005 -0.021,0.021z"/>
   <path fill="white" d="M2.128 1.123c0,0.123 -0.02,0.103 0.104,0.103 0.03,0 0.02,-0.032 0.02,-0.103 0,-0.031 -0.032,-0.021 -0.103,-0.021 -0.016,0 -0.021,0.005 -0.021,0.021z"/>
   <path fill="white" d="M2.59 1.495c0,0.015 0.005,0.02 0.02,0.02l0.097 0 0 -0.124 -0.117 0 0 0.104z"/>
   <path fill="white" d="M2.879 1.495c0,0.015 0.005,0.02 0.021,0.02l0.096 0 0 -0.124 -0.117 0 0 0.104z"/>
   <polygon fill="white" points="2.59,1.281 2.707,1.281 2.707,1.164 2.59,1.164 "/>
   <polygon fill="white" points="2.362,1.336 2.48,1.336 2.48,1.219 2.362,1.219 "/>
   <polygon fill="white" points="2.073,1.453 2.19,1.453 2.19,1.336 2.073,1.336 "/>
   <polygon fill="white" points="2.59,1.742 2.707,1.742 2.707,1.625 2.59,1.625 "/>
   <polygon fill="white" points="2.362,1.57 2.48,1.57 2.48,1.453 2.362,1.453 "/>
  </g>
 </g>
</svg>
