<?xml version="1.0" encoding="UTF-8"?>
<!DOCTYPE svg PUBLIC "-//W3C//DTD SVG 1.1//EN" "http://www.w3.org/Graphics/SVG/1.1/DTD/svg11.dtd">
<!-- Creator: CorelDRAW 2021.5 -->
<svg xmlns="http://www.w3.org/2000/svg" xml:space="preserve" width="59px" height="59px" version="1.1" shape-rendering="geometricPrecision" text-rendering="geometricPrecision" image-rendering="optimizeQuality" fill-rule="evenodd" clip-rule="evenodd"
viewBox="0 0 24.362 24.423"
 xmlns:xlink="http://www.w3.org/1999/xlink"
 xmlns:xodm="http://www.corel.com/coreldraw/odm/2003">
 <g id="Capa_x0020_1">
  <metadata id="CorelCorpID_0Corel-Layer"/>
  <g id="_1756452925520">
   <path fill="#F41E1E" d="M12.131 18.382l0.098 0c0,0.357 0.737,3.897 0.879,4.621 0.058,0.293 0.084,0.362 0.202,0.585l-2.26 0c0.182,-0.343 1.081,-4.743 1.081,-5.206zm-4.273 -12.131l0 -2.652c0,-0.484 0.568,-0.596 0.742,-0.202 0.139,0.315 -0.071,2.363 0.119,2.828l1.356 3.359c0.105,0.263 0.169,0.645 0.533,0.645l3.242 0c0.286,0 0.678,-1.253 0.786,-1.523 0.223,-0.558 0.458,-1.133 0.681,-1.676 0.115,-0.281 0.206,-0.516 0.324,-0.805 0.132,-0.324 0.078,-1.826 0.075,-2.283 -0.002,-0.206 -0.017,-0.407 0.044,-0.545 0.174,-0.394 0.742,-0.282 0.742,0.202l0 2.603c0,0.446 -0.133,0.675 -0.267,1.01 -0.372,0.931 -1.248,2.947 -1.407,3.75l-0.523 2.718c-0.037,0.199 -0.025,0.478 -0.21,0.478l-3.83 0c-0.208,0 -0.219,-0.581 -0.299,-0.978 -0.07,-0.351 -0.143,-0.687 -0.213,-1.064 -0.378,-2.027 -0.435,-1.945 -1.228,-3.929 -0.185,-0.46 -0.667,-1.502 -0.667,-1.936zm-0.786 -2.8l0 3.095c0,0.403 0.264,0.928 0.386,1.234l0.947 2.393c0.289,0.723 0.222,0.538 0.374,1.296 0.188,0.943 0.379,1.824 0.574,2.767 0.074,0.361 0.059,0.306 0,0.679 -0.044,0.271 -0.074,0.492 -0.113,0.723 -0.092,0.554 -0.475,1.811 0.141,1.811 0.276,0 0.388,-0.189 0.431,-0.404 0.051,-0.259 0.073,-0.464 0.116,-0.719l0.172 -1.105c0.023,-0.16 -0.007,-0.277 0.165,-0.277l3.929 0c0,0.338 0.097,0.689 0.139,0.99 0.174,1.257 1.088,6.184 1.088,7.015 0,0.638 -1.139,0.962 -1.439,0.114l-1.275 -6.436c-0.133,-0.776 -0.148,-0.897 -0.625,-0.897 -0.322,0 -0.351,0.556 -0.414,0.863 -0.077,0.384 -0.13,0.678 -0.204,1.073l-1.032 5.352c-0.054,0.194 -0.121,0.274 -0.251,0.388 -0.491,0.431 -1.268,0.012 -1.229,-0.642 0.029,-0.485 0.674,-3.715 0.674,-4.235 0,-0.44 -0.725,-0.642 -0.85,0.034l-0.337 2.168c-0.058,0.417 -0.316,1.805 -0.302,2.15 0.014,0.348 0.101,0.439 0.163,0.707 -0.841,0 -1.228,-0.101 -1.228,0.54 0,0.159 0.214,0.295 0.393,0.295l14.145 0c0.354,0 0.392,-0.242 0.392,-0.442 0,-0.527 -0.648,-0.393 -1.178,-0.393l-4.764 0c0.347,-0.656 0.163,-1.182 0.042,-1.909 -0.057,-0.341 -0.12,-0.771 -0.175,-1.101 -0.128,-0.762 -0.239,-1.482 -0.365,-2.238l-0.607 -3.826c0.01,-0.148 0.086,-0.443 0.11,-0.565 0.138,-0.685 0.476,-2.62 0.633,-3.198l1.092 -2.788c0.289,-0.724 0.498,-1.086 0.498,-2.105 0,-0.765 0.126,-2.564 -0.259,-3.032 -0.632,-0.771 -2.159,-0.635 -2.148,0.87 0.017,2.504 0.129,1.839 -0.758,4.056 -0.125,0.314 -0.217,0.57 -0.343,0.884l-0.249 0.636c-0.05,0.112 -0.029,0.171 -0.172,0.171l-2.358 0c-0.151,0 -0.101,-0.035 -0.157,-0.137l-1.31 -3.258c-0.072,-0.173 -0.106,-0.233 -0.107,-0.482l0.003 -1.82c0.005,-0.904 -0.373,-1.375 -1.277,-1.375 -0.562,0 -1.081,0.519 -1.081,1.08z"/>
   <path fill="#F41E1E" d="M21.217 3.353l0 2.947 -0.786 0 0 -5.501 0.786 0c0,0.958 -0.168,1.621 0.393,1.621 0.492,0 0.392,-0.467 0.392,-0.835l0.786 0 0 3.929 -0.786 0 0 -2.161c0,-0.474 -0.785,-0.474 -0.785,0zm-1.572 -3.045l0 2.849 -1.67 0c-0.395,0 -0.395,0.786 0,0.786l1.67 0 0 2.848c0,0.118 0.177,0.295 0.295,0.295l1.768 0c0.369,0 0.294,-0.581 0.294,-0.786 0.614,0 1.572,0.142 1.572,-0.295l0 -2.062c0.541,0 0.786,0.076 0.786,-0.492 0,-0.369 -0.581,-0.294 -0.786,-0.294l0 -2.063c0,-0.437 -0.958,-0.295 -1.572,-0.295 0,-0.966 0.115,-0.785 -2.062,-0.785 -0.118,0 -0.295,0.176 -0.295,0.294z"/>
   <path fill="#F41E1E" d="M2.357 5.023l0 0.491 -0.785 0 0 -3.929 0.785 0 0 2.063c0,0.395 0.786,0.395 0.786,0l0 -2.849 0.786 0 0 5.501 -0.786 0c0,-1.267 0.156,-1.572 -0.491,-1.572 -0.118,0 -0.295,0.177 -0.295,0.295zm0 -4.715l0 0.491c-0.613,0 -1.571,-0.142 -1.571,0.295l0 2.063c-0.541,0 -0.786,-0.077 -0.786,0.491 0,0.369 0.581,0.295 0.786,0.295l0 2.062c0,0.437 0.958,0.295 1.571,0.295 0,0.967 -0.114,0.786 2.063,0.786 0.118,0 0.295,-0.177 0.295,-0.295l0 -2.848 1.572 0c0.517,0 0.402,-0.786 0.049,-0.786l-1.621 0 0 -2.849c0,-0.118 -0.177,-0.294 -0.295,-0.294l-1.768 0c-0.118,0 -0.295,0.176 -0.295,0.294z"/>
   <path fill="#F41E1E" d="M11.394 6.938l0 -0.491c0,-1.228 1.572,-1.228 1.572,0l0 0.491c0,1.229 -1.572,1.229 -1.572,0zm-0.786 -0.785c0,0.846 -0.124,1.475 0.453,2.052 0.611,0.611 1.627,0.611 2.238,0 0.577,-0.577 0.453,-1.206 0.453,-2.052 0,-0.682 -0.743,-1.425 -1.425,-1.425 -0.51,0 -0.866,0.053 -1.266,0.453 -0.195,0.194 -0.453,0.605 -0.453,0.972z"/>
   <path fill="#F41E1E" d="M0 23.882c0,0.186 0.034,0.492 0.295,0.492l5.697 0c0.395,0 0.395,-0.786 0,-0.786l-5.697 0c-0.119,0 -0.295,0.176 -0.295,0.294z"/>
   <path fill="#F41E1E" d="M9.774 3.55c0,0.237 0.155,0.393 0.392,0.393l3.978 0c0.475,0 0.475,-0.786 0,-0.786l-4.076 0c-0.159,0 -0.294,0.213 -0.294,0.393z"/>
   <path fill="#F41E1E" d="M22.788 23.882c0,0.623 0.281,0.492 1.277,0.492 0.396,0 0.396,-0.786 0,-0.786 -0.468,0 -1.277,-0.121 -1.277,0.294z"/>
  </g>
 </g>
</svg>
