<?xml version="1.0" encoding="UTF-8"?>
<!DOCTYPE svg PUBLIC "-//W3C//DTD SVG 1.1//EN" "http://www.w3.org/Graphics/SVG/1.1/DTD/svg11.dtd">
<!-- Creator: CorelDRAW 2021.5 -->
<svg xmlns="http://www.w3.org/2000/svg" xml:space="preserve" width="40px" height="56px" version="1.1" shape-rendering="geometricPrecision" text-rendering="geometricPrecision" image-rendering="optimizeQuality" fill-rule="evenodd" clip-rule="evenodd"
viewBox="0 0 85.531 119.653"
 xmlns:xlink="http://www.w3.org/1999/xlink"
 xmlns:xodm="http://www.corel.com/coreldraw/odm/2003">
 <g id="Capa_x0020_1">
  <metadata id="CorelCorpID_0Corel-Layer"/>
  <path fill="#F41E1E" d="M70.598 112.876c5.535,0 5.482,3.271 4.219,3.271 -5.862,0 -10.038,0.785 -7.379,-2.157 0.617,-0.683 1.795,-1.114 3.16,-1.114zm-7.787 -112.876l1.752 0c3.697,0.342 7.152,2.794 7.173,6.299 0.02,3.327 -0.389,2.101 1.566,4.775 2.585,3.538 1.665,9.746 -0.893,12.865 -2.424,2.957 -2.093,-0.242 -2.093,6.675 2.202,0.152 7.076,2.001 9.461,2.656 1.649,0.453 3,1.071 3.933,2.108 2.583,2.875 2.143,5.125 0.391,8.092 -2.031,3.441 -4.784,1.945 -4.784,0.465 0,-1.526 1.797,-2.499 1.88,-4.234 0.069,-1.456 -1.412,-3.011 -3.287,-3.011 -3.742,0 -4.482,4.026 -5.519,6.632 -1.156,2.905 -2.27,5.593 -3.44,8.359 -0.891,2.107 -1.095,2.104 -4.267,2.08 -3.386,-0.028 -6.105,-0.483 -9.563,-0.471 -2.545,0.007 -7.587,-1.315 -7.587,1.629 0,2.24 5.671,1.64 8.319,1.968 1.294,0.16 3.755,0.317 4.906,0.365 8.14,0.334 9.008,1.637 11.62,-2.723 0.615,-1.026 2.736,-5.219 4.126,-5.219 3.105,0 3.028,1.549 1.879,3.43l-3.63 5.82c-0.284,0.903 4.914,8.24 -1.287,16.737 -0.489,0.67 -0.855,1.266 -1.42,1.859 -3.971,4.173 -6.862,4.025 -2.974,9.41 4.994,6.919 5.795,15.301 7.768,23.226 0.541,2.174 3.038,2.747 3.038,5.42 0,3.087 -1.741,4.131 -4.545,4.441l-8.955 0c-1.757,0 -3.938,-1.813 -3.938,-3.272 0,-2.472 0.395,-2.879 1.688,-4.907 -1.464,-2.299 -3.139,-4.507 -4.685,-6.858 -1.331,-2.025 -3.374,-4.809 -4.034,-7.164l-0.563 0c-0.52,1.618 -6.012,6.75 -7.813,8.464 -7.248,6.905 -6.379,9.768 -9.264,12.167 -1.585,1.317 -3.195,1.539 -5.139,1.57l-1.973 0c-3.218,0 -5.907,-2.689 -5.907,-5.375 0,-2.361 2.479,-4.085 3.855,-5.444 0.523,-0.518 0.524,-0.639 1.135,-1.161 1.37,-1.169 2.494,-1.973 3.205,-3.647 0.884,-2.082 1.846,-4.126 2.857,-6.272 0.7,-1.487 1.489,-5.21 3.855,-5.21 4.466,0 0.787,4.742 0.282,6.543 1.291,0.287 3.992,1.977 5.344,2.571 1.968,-1.095 8.157,-7.847 8.157,-9.348 0,-4.211 -3.191,-5.62 -3.938,-7.946 -1.378,0.768 -3.58,4.441 -4.782,4.441 -1.236,0 -2.812,-0.242 -2.812,-1.636 0,-1.804 3.696,-4.371 4.781,-6.077 -0.597,-0.937 -1.178,-1.501 -1.855,-2.431 -3.795,-5.219 -4.137,-12.125 -1.405,-17.804 1.531,-3.181 1.645,-1.36 0.271,-3.92 -0.445,-0.829 -0.386,-1.789 -0.386,-2.719 0,-2.272 2.578,-4.502 5.062,-4.674 -0.069,-0.705 -0.83,-2.996 -1.124,-3.505 -3.041,1.212 -7.044,1.99 -10.301,2.892l-25.665 6.952c-1.443,0.4 -3.507,1.139 -5.38,1.139 -2.785,0 -5.907,-2.511 -5.907,-4.907 0,-4.064 2.835,-5.061 6.793,-6.275 4.233,-1.3 12.052,-5.223 12.052,-1.204 0,1.471 -2.376,1.959 -3.817,2.437 -2.248,0.746 -7.686,2.212 -9.691,3.167 -1.841,0.878 -0.826,3.043 0.57,3.043 1.679,0 8.374,-2.046 10.37,-2.601 3.424,-0.951 27.947,-7.39 29.851,-8.149 -0.041,-1.5 -0.826,-4.179 0,-5.609 -2.805,0.543 -8.962,2.838 -11.975,3.839 -2.068,0.688 -3.779,1.25 -5.824,1.938 -1.937,0.652 -4.703,1.226 -4.703,-1.337 0,-1.368 2.04,-1.707 3.335,-2.136 6.283,-2.08 15.124,-5.257 21.167,-6.952 1.632,-0.458 2.917,-0.635 4.696,-1.005 1.137,-0.238 3.597,-0.805 4.836,-0.891 0,-0.952 0.149,-3.409 -0.02,-4.189 -0.405,-1.874 -4.481,-2.208 -4.481,-10.3 0,-4.462 2.518,-5.11 3.024,-6.602 0.885,-2.613 -1.249,-4.259 2.113,-7.358 1.262,-1.162 2.862,-1.775 4.515,-1.931zm-29.903 116.147c-2.321,0 -3.656,0.011 -3.656,-2.103 0,-0.902 4.28,-3.938 5.344,-5.608 1.307,0.289 1.974,1.13 3.375,1.401 -0.257,0.918 -2.576,5.505 -3.725,6.02 -0.53,0.238 -0.672,0.29 -1.338,0.29zm33.19 -9.581c1.875,-0.035 3.524,-0.809 5.343,-0.935 0.124,1.236 0.721,2.504 0.844,3.739 -1.882,0 -2.966,-0.063 -4.5,0.233 -0.453,-0.711 -1.58,-2.339 -1.687,-3.037zm-25.595 0.233c-1.047,-0.202 -2.196,-0.883 -3.376,-1.401 0.093,-0.927 0.833,-1.997 1.126,-3.039 1.042,0.58 3.606,1.643 4.218,2.337 -0.585,0.728 -1.421,1.424 -1.968,2.103zm5.343 -38.559l0 -0.935c1.61,0 7.092,1.168 14.345,1.168 0.03,1.11 0.847,2.93 1.152,4.185 1.641,6.764 0.542,10.668 3.72,15.371l3.007 5.447c1.33,2.757 1.657,5.31 2.528,8.416 -1.729,0.689 -5.34,0.961 -7.032,1.636 -0.45,-1.603 -4.006,-4.553 -6.161,-13.577 -0.473,-1.981 -0.953,-3.116 -2.046,-4.61 -4.599,-6.279 -9.513,-9.912 -9.513,-17.101zm18.564 0c2.536,0 5.787,-0.81 7.594,-0.935 -0.073,2.754 -2.161,6.318 -4.175,8.466 -1.696,1.807 -1.153,0.577 -1.942,-2.682 -0.379,-1.564 -0.794,-3.667 -1.477,-4.849zm-3.657 -3.506c-3.303,0 -5.28,0.052 -8.645,-0.295 -1.444,-0.149 -3.485,-0.64 -5.136,-0.64 0.094,-0.94 1.187,-2.872 1.687,-3.738 2.663,0 18.141,1.401 19.876,1.299 0.91,-0.054 1.807,-0.309 2.625,-0.365 0.056,0.551 0.616,2.175 0.844,2.571 -3.282,0.635 -7.236,1.168 -11.251,1.168zm4.22 -14.723c-4.267,0 -7.908,-0.467 -12.094,-0.467 -0.034,-1.213 -1.078,-3.592 -1.466,-4.858 -1.013,-3.308 -1.979,-4.54 -0.765,-7.978 0.652,-1.843 0.531,-1.388 5.154,-2.262 6.138,-1.16 2.027,-0.011 6.194,0.751 4.401,0.806 5.858,-0.998 6.744,-1.173 0.856,-0.167 2.306,0.711 3.545,0.797 -1.343,1.667 -0.868,0.031 -2.292,3.236l-5.02 11.954zm-3.094 -22.201c4.135,0.286 0.083,0.286 4.219,0 0,1.848 0.421,3.113 -0.67,3.651 -0.144,0.07 -1.152,0.322 -1.299,0.322 -2.929,0 -2.25,-1.693 -2.25,-3.973zm-4.219 -9.815l0 -0.701 12.656 0c0,5.685 -6.15,9.683 -10.892,4.844 -0.948,-0.966 -1.764,-2.465 -1.764,-4.143zm5.906 -7.712l0.844 0c2.407,0 4.893,1.664 5.344,3.271l-11.532 0c0.451,-1.607 2.937,-3.271 5.344,-3.271zm-3.094 -3.272c0.123,-4.565 6.905,-4.727 7.032,0 -1.177,-0.081 -2.148,-0.467 -3.375,-0.467 -1.532,0 -2.322,0.375 -3.657,0.467z"/>
 </g>
</svg>
