<?xml version="1.0" encoding="UTF-8"?>
<!DOCTYPE svg PUBLIC "-//W3C//DTD SVG 1.1//EN" "http://www.w3.org/Graphics/SVG/1.1/DTD/svg11.dtd">
<!-- Creator: CorelDRAW 2021.5 -->
<svg xmlns="http://www.w3.org/2000/svg" xml:space="preserve" width="41px" height="41px" version="1.1" shape-rendering="geometricPrecision" text-rendering="geometricPrecision" image-rendering="optimizeQuality" fill-rule="evenodd" clip-rule="evenodd"
viewBox="0 0 5.258 5.257"
 xmlns:xlink="http://www.w3.org/1999/xlink"
 xmlns:xodm="http://www.corel.com/coreldraw/odm/2003">
 <g id="Capa_x0020_1">
  <metadata id="CorelCorpID_0Corel-Layer"/>
  <path fill="#F41E1E" d="M2.413 5.052l0 -0.154c0.394,0 0.267,-0.005 0.656,0.124 0.099,0.033 0.11,0.019 0.114,0.071 -0.042,0.024 -0.604,0.01 -0.698,0.01 -0.035,0 -0.072,-0.018 -0.072,-0.051zm2.845 0.122l0 0.012c-0.003,0.036 -0.023,0.071 -0.062,0.071l-5.134 0c-0.039,0 -0.06,-0.035 -0.062,-0.071l0 -0.012c0.002,-0.036 0.023,-0.071 0.062,-0.071l2.197 0c0,-0.089 -0.013,-0.123 -0.003,-0.198 0.006,-0.035 -0.006,-0.146 -0.012,-0.188 -0.029,-0.202 -0.071,-0.735 -0.088,-0.958 -0.022,-0.279 -0.079,-0.698 -0.092,-0.957 -0.004,-0.084 -0.032,-0.088 -0.08,-0.135 -0.019,-0.02 -0.031,-0.033 -0.051,-0.052l-1.766 -1.673c-0.094,-0.095 -0.217,-0.175 -0.142,-0.332 0.006,-0.012 0.032,-0.052 0.041,-0.062 0.107,-0.12 0.222,-0.055 0.318,0.002 0.108,0.063 0.794,0.437 0.824,0.491 0.026,0.049 -0.013,0.119 -0.068,0.119 -0.041,0 -0.289,-0.148 -0.342,-0.177l-0.172 0.177c0.101,0.067 0.172,0.173 0.266,0.248l0.173 0.165c0.034,0.034 0.056,0.046 0.088,0.077 0.058,0.056 0.106,0.111 0.164,0.165l0.858 0.816c0.051,0.05 0.036,0.042 0.045,0.129 0.015,0.156 0.022,0.306 0.043,0.459l0.14 1.525c0.231,0 0.247,0.03 0.26,-0.058l0.321 -1.939c0.005,-0.063 -0.091,-0.146 -0.109,-0.211 -0.036,0.026 -0.041,0.113 -0.053,0.162 -0.014,0.055 -0.028,0.111 -0.043,0.173 -0.027,0.108 -0.045,0.291 -0.13,0.291 -0.19,0 -0.004,-0.31 0.011,-0.482 -0.039,0.025 -0.046,0.033 -0.08,0.064 -0.015,0.013 -0.068,0.059 -0.085,0.059 -0.089,0 -0.127,-0.09 -0.063,-0.146 0.065,-0.058 0.293,-0.234 0.33,-0.285 -0.011,-0.047 -0.088,-0.155 -0.116,-0.203 -0.13,-0.218 -0.092,-0.221 -0.305,-0.331l-0.303 -0.169c-0.036,-0.022 -0.065,-0.035 -0.099,-0.055l-0.502 -0.279c-0.114,-0.06 -0.066,-0.165 0.001,-0.165 0.061,0 0.107,0.041 0.157,0.069 0.048,0.026 0.089,0.051 0.137,0.078 0.094,0.052 0.182,0.099 0.271,0.15l0.544 0.299 0.247 -0.185c0.043,-0.031 0.04,-0.025 0.04,-0.093 -0.156,-0.036 -0.074,-0.091 -0.161,-0.115 -0.021,-0.006 -0.05,-0.011 -0.074,-0.019 -0.182,-0.066 -0.217,-0.271 -0.091,-0.408 0.148,-0.16 0.239,-0.024 0.377,-0.012 0.03,-0.112 0.236,-0.003 0.341,0.029 0.05,0.016 0.227,0.084 0.265,0.084 0.018,0 0.143,-0.122 0.185,-0.134 -0.004,-0.054 -0.032,-0.098 -0.044,-0.161 -0.031,-0.165 0.01,-0.345 0.094,-0.467 0.229,-0.332 0.708,-0.389 0.99,-0.092 0.032,0.033 0.019,0.029 0.06,0.025 0.15,-0.016 0.264,0.021 0.356,0.112 0.212,0.213 0.142,0.578 -0.15,0.677 -0.029,0.01 -0.055,0.016 -0.094,0.02 -0.021,0.003 -0.031,0.004 -0.041,0.004 -0.161,-0.001 -0.06,-0.005 -0.204,0.11 -0.038,0.03 -0.103,0.068 -0.156,0.08 0.011,0.044 0.019,0.037 0.037,0.077 0.032,0.07 0.127,0.375 -0.026,0.375 -0.109,0 -0.074,-0.102 -0.084,-0.194 -0.009,-0.087 -0.048,-0.133 -0.081,-0.196 -0.069,0.037 -0.13,0.078 -0.202,0.117l-0.599 0.345c0.053,0.1 0.123,0.194 0.185,0.288 0.048,-0.032 0.319,-0.247 0.37,-0.247 0.05,0 0.082,0.033 0.082,0.082 0,0.063 -0.172,0.16 -0.223,0.198 -0.299,0.224 -0.241,0.231 -0.444,-0.075 -0.055,-0.081 -0.118,-0.169 -0.165,-0.256 -0.066,0.015 -0.14,0.076 -0.195,0.113l0.315 0.506c0.017,0.029 0.046,0.077 0.068,0.097 0.15,0.137 0.303,0.048 0.442,-0.056 0.198,-0.149 0.319,-0.165 0.384,-0.427 0.011,-0.041 0.029,-0.079 0.075,-0.079 0.163,0 0.088,0.329 -0.218,0.532 -0.136,0.09 -0.306,0.259 -0.481,0.259 -0.242,0 -0.223,-0.085 -0.328,-0.113 -0.068,0.045 -0.129,0.1 -0.2,0.149 -0.063,0.044 -0.052,0.022 -0.066,0.109l-0.297 1.797c-0.009,0.049 -0.022,0.103 -0.022,0.152 0.044,0.004 0.125,0.037 0.165,0.05 0.173,0.058 0.369,0.072 0.369,0.279l1.848 0c0.039,0 0.059,0.035 0.062,0.071zm-2.598 -3.295l0.236 -0.175c0.022,0.042 0.042,0.047 0.05,0.094 0.013,0.078 0.003,0.046 0.04,0.103l0.331 0.532c-0.06,0.032 -0.162,0.121 -0.226,0.164 -0.069,-0.13 -0.239,-0.395 -0.324,-0.538 -0.039,-0.064 -0.074,-0.117 -0.107,-0.18zm0.338 -0.308c0,-0.056 -0.001,-0.103 0.103,-0.103 0.04,0 0.094,0.097 0.103,0.133 -0.049,0.026 -0.085,0.057 -0.134,0.083 -0.028,-0.055 -0.072,-0.089 -0.072,-0.113zm0.658 -0.083zm0 0zm0 0l0.096 -0.171c0.025,-0.047 0.088,-0.134 0.099,-0.178 0.059,0.005 0.086,0.07 0.226,0.103 -0.007,0.005 -0.013,0.011 -0.023,0.018l-0.398 0.228zm-0.504 -0.174c-0.184,-0.043 -0.166,0.052 -0.256,0.031l0.102 -0.278c0.075,0.002 0.241,0.085 0.329,0.093l0 0.02c-0.03,0.008 -0.155,0.104 -0.175,0.134zm0.278 0.246l-0.093 -0.061c-0.017,-0.021 -0.048,-0.069 -0.051,-0.103 0.03,-0.008 0.079,-0.05 0.104,-0.07l0.249 -0.193c0.027,-0.02 0.028,-0.027 0.058,-0.035 -0.024,0.035 -0.041,0.07 -0.065,0.11 -0.032,0.054 -0.194,0.315 -0.202,0.352zm-0.657 -0.328c-0.261,-0.022 -0.196,-0.195 -0.113,-0.195 0.045,0 0.131,0.035 0.164,0.051 -0.014,0.03 -0.043,0.109 -0.051,0.144zm-2.609 -0.534c0,-0.175 0.35,0.152 0.473,0.185 -0.032,0.06 -0.086,0.098 -0.124,0.154 -0.095,-0.064 -0.105,-0.101 -0.177,-0.162 -0.034,-0.028 -0.172,-0.137 -0.172,-0.177zm3.615 -0.052c0,-0.122 0.02,-0.125 0.041,-0.215 0.052,0.004 0.327,0.197 0.4,0.236 0,0.141 -0.048,0.254 0.052,0.441 -0.09,0 -0.135,-0.008 -0.2,-0.036 -0.165,-0.072 -0.293,-0.251 -0.293,-0.426zm1.058 -0.277c0.07,0 0.136,0.026 0.176,0.06 0.141,0.117 0.106,0.437 -0.166,0.443 0.069,-0.145 0.056,-0.365 -0.01,-0.503zm-0.103 0.236c0,0.12 -0.018,0.213 -0.091,0.31 -0.036,0.049 -0.134,0.146 -0.207,0.152 -0.132,-0.197 -0.041,-0.34 -0.041,-0.441 0,-0.059 -0.153,-0.131 -0.224,-0.177 -0.081,-0.052 -0.164,-0.107 -0.248,-0.152 0.016,-0.024 0.066,-0.06 0.096,-0.078 0.298,-0.18 0.715,0.054 0.715,0.386z"/>
 </g>
</svg>
