<?xml version="1.0" encoding="UTF-8"?>
<!DOCTYPE svg PUBLIC "-//W3C//DTD SVG 1.1//EN" "http://www.w3.org/Graphics/SVG/1.1/DTD/svg11.dtd">
<!-- Creator: CorelDRAW 2021.5 -->
<svg xmlns="http://www.w3.org/2000/svg" xml:space="preserve" width="60px" height="50px" version="1.1" shape-rendering="geometricPrecision" text-rendering="geometricPrecision" image-rendering="optimizeQuality" fill-rule="evenodd" clip-rule="evenodd"
viewBox="0 0 2.412 2.019"
 xmlns:xlink="http://www.w3.org/1999/xlink"
 xmlns:xodm="http://www.corel.com/coreldraw/odm/2003">
 <g id="Capa_x0020_1">
  <metadata id="CorelCorpID_0Corel-Layer"/>
  <g id="_1756459727952">
   <path fill="white" d="M2.101 1.715l0.113 0 0 0.203 -0.113 0 0 -0.203zm0.311 -0.259l0 0.212c-0.006,0.05 -0.03,0.047 -0.104,0.047l0 0.264c0,0.008 -0.01,0.022 -0.016,0.026 -0.026,0.021 -0.182,0.012 -0.238,0.012 -0.026,0 -0.047,-0.024 -0.047,-0.038l0 -0.264 -1.611 0 0 0.254c0,0.024 -0.024,0.048 -0.047,0.048l-0.203 0c-0.039,0 -0.056,-0.024 -0.056,-0.062l0 -0.24c-0.028,0 -0.055,0.004 -0.074,-0.011 -0.006,-0.005 -0.016,-0.019 -0.016,-0.027l0 -0.635c0,-0.051 0.072,-0.065 0.091,-0.016 0.007,0.018 0.003,0.046 0.003,0.067 0.03,-0.014 0.084,-0.009 0.128,-0.009 0.045,0 0.264,-0.064 0.325,-0.079l0.217 -0.057c0.036,-0.011 0.073,-0.018 0.108,-0.029 0.041,-0.012 0.036,-0.078 0.141,-0.127 0.03,-0.014 0.067,-0.024 0.113,-0.024 0.07,0.001 0.034,0.008 0.097,-0.039 0.027,-0.021 0.047,-0.038 0.074,-0.058 0.104,-0.078 0.245,-0.146 0.38,-0.157 -0.001,-0.016 -0.006,-0.023 -0.009,-0.038 -0.019,-0.082 0.01,-0.143 0.038,-0.206 0.005,-0.012 0.006,-0.012 0.012,-0.022 0.013,-0.023 -0.003,-0.026 -0.003,-0.054l0 -0.043c0,-0.108 0.174,-0.215 0.288,-0.105 0.07,0.068 0.029,0.095 0.075,0.128 0.054,0.038 0.098,0.115 0.098,0.18 0,0.1 -0.047,0.214 -0.126,0.269 -0.025,0.017 -0.049,0.029 -0.081,0.037 0.014,0.02 0.24,0.207 0.277,0.241 0.026,0.025 0.029,0.023 0.057,0.056 0.021,-0.076 0.109,-0.071 0.109,-0.014 0,0.029 -0.004,0.026 -0.018,0.048l-0.103 0.161c-0.014,0.023 -0.028,0.042 -0.039,0.064 0.008,0.01 0.014,0.017 0.022,0.029l0.103 0.147c0.01,0.014 0.035,0.046 0.035,0.064zm-2.224 0.259l0.109 0 0 0.203 -0.109 0 0 -0.203zm2.002 -0.41c0.019,0.005 0.07,0.088 0.08,0.104l-0.141 0c0.009,-0.017 0.019,-0.033 0.03,-0.05 0.011,-0.016 0.027,-0.035 0.031,-0.054zm-2.096 0.104l0 -0.174c0,-0.03 0.014,-0.052 0.043,-0.052l0.056 0 0 0.122c0,0.058 -0.042,0.104 -0.099,0.104zm1.922 0l-0.518 0c-0.065,0 -0.127,-0.007 -0.127,0.052 0,0.025 0.021,0.047 0.047,0.047l0.899 0 0 0.108 -2.223 0 0 -0.108 0.9 0c0.031,0 0.047,-0.02 0.047,-0.052 0,-0.062 -0.094,-0.047 -0.155,-0.047l-0.622 0c0.004,-0.018 0,0 0.004,-0.01 0,-0.001 0.001,-0.003 0.001,-0.004 0.013,-0.03 0.009,-0.021 0.073,-0.03 0.244,-0.035 0.513,-0.053 0.731,-0.14 0.058,-0.023 0.114,-0.049 0.173,-0.072 0.063,-0.025 0.122,-0.041 0.188,-0.063 0.074,-0.024 0.317,-0.086 0.337,-0.161 0.021,0.004 0.072,0.047 0.093,0.062 0.056,0.037 0.237,0.188 0.289,0.192 -0.007,0.03 -0.13,0.199 -0.137,0.226zm-1.724 -0.137c0,-0.125 -0.012,-0.095 0.048,-0.112 0.156,-0.046 0.359,-0.09 0.518,-0.137 0.038,-0.011 0.09,-0.016 0.106,-0.04 0.01,-0.014 0.015,-0.03 0.025,-0.045 0.011,-0.017 0.017,-0.027 0.036,-0.04 0.03,-0.021 0.061,-0.035 0.11,-0.035 0.017,0 0.037,0.067 0.047,0.094l0.038 0.103c-0.029,0.007 -0.071,0.029 -0.101,0.041 -0.276,0.11 -0.268,0.096 -0.573,0.138l-0.254 0.033zm1.465 -0.64c0.036,0 0.05,0.021 0.071,0.037 0.056,0.044 0.177,0.158 0.234,0.204l0.12 0.101c0.006,0.006 0.008,0.009 0.014,0.014 0.077,0.064 0.017,0.101 -0.006,0.101 -0.034,0 -0.029,-0.001 -0.054,-0.021 -0.015,-0.011 -0.024,-0.017 -0.039,-0.028l-0.223 -0.162c-0.051,-0.035 -0.097,-0.071 -0.148,-0.107 -0.08,-0.057 -0.035,-0.139 0.031,-0.139zm-0.17 0.07c0,0.049 0.011,0.074 0.036,0.106 0.022,0.026 0.046,0.041 0.073,0.059 -0.013,0.046 -0.121,0.074 -0.179,0.095l-0.208 0.065c-0.001,-0.016 -0.026,-0.076 -0.032,-0.094 -0.007,-0.016 -0.033,-0.078 -0.033,-0.094 0,-0.008 0.139,-0.112 0.158,-0.124 0.045,-0.03 0.091,-0.053 0.142,-0.07 0.014,-0.004 0.046,-0.012 0.058,-0.018 -0.002,0.018 -0.005,0.016 -0.01,0.033 -0.003,0.015 -0.005,0.024 -0.005,0.042zm0.17 -0.277c0.027,0.002 0.062,0.028 0.092,0.035 0.041,0.008 0.027,-0.031 0.11,-0.031 0.034,0 0.065,0.026 0.095,0.033 -0.015,0.028 -0.024,0.054 -0.049,0.074 -0.069,0.058 -0.187,0.045 -0.233,-0.052 -0.011,-0.023 -0.008,-0.043 -0.015,-0.059zm0.052 -0.25c0,-0.037 0.031,-0.076 0.066,-0.076 0.035,0 0.075,0.008 0.083,0.053 0.009,0.048 -0.007,0.059 0.033,0.081 0.071,0.04 0.074,0.064 0.091,0.135 -0.053,-0.012 -0.1,-0.062 -0.203,-0.024 -0.061,0.022 -0.022,0.003 -0.094,-0.014 0.007,-0.013 0.011,-0.029 0.02,-0.041 0.015,-0.024 0.023,-0.018 0.023,-0.053 0,-0.024 -0.019,-0.034 -0.019,-0.061z"/>
   <path fill="white" d="M1.159 1.456c0,0.069 0.094,0.069 0.094,0 0,-0.058 -0.094,-0.058 -0.094,0z"/>
  </g>
 </g>
</svg>
