<?xml version="1.0" encoding="UTF-8"?>
<!DOCTYPE svg PUBLIC "-//W3C//DTD SVG 1.1//EN" "http://www.w3.org/Graphics/SVG/1.1/DTD/svg11.dtd">
<!-- Creator: CorelDRAW 2021.5 -->
<svg xmlns="http://www.w3.org/2000/svg" xml:space="preserve" width="60px" height="50px" version="1.1" shape-rendering="geometricPrecision" text-rendering="geometricPrecision" image-rendering="optimizeQuality" fill-rule="evenodd" clip-rule="evenodd"
viewBox="0 0 20.241 16.943"
 xmlns:xlink="http://www.w3.org/1999/xlink"
 xmlns:xodm="http://www.corel.com/coreldraw/odm/2003">
 <g id="Capa_x0020_1">
  <metadata id="CorelCorpID_0Corel-Layer"/>
  <g id="_1791176419488">
   <path fill="#F41E1E" d="M17.631 14.395l0.949 0 0 1.7 -0.949 0 0 -1.7zm2.61 -2.175l0 1.781c-0.052,0.414 -0.245,0.394 -0.87,0.394l0 2.213c0,0.066 -0.088,0.184 -0.135,0.222 -0.215,0.175 -1.527,0.095 -2,0.095 -0.213,0 -0.395,-0.196 -0.395,-0.317l0 -2.213 -13.52 0 0 2.134c0,0.199 -0.197,0.396 -0.396,0.396l-1.7 0c-0.324,0 -0.474,-0.195 -0.474,-0.514l0 -2.016c-0.229,0 -0.459,0.034 -0.617,-0.095 -0.046,-0.038 -0.134,-0.156 -0.134,-0.222l0 -5.336c0,-0.422 0.606,-0.543 0.765,-0.133 0.058,0.149 0.026,0.391 0.026,0.567 0.251,-0.12 0.703,-0.078 1.068,-0.077 0.379,0 2.218,-0.538 2.735,-0.666l1.815 -0.477c0.301,-0.09 0.614,-0.155 0.907,-0.24 0.349,-0.102 0.305,-0.661 1.183,-1.07 0.254,-0.118 0.569,-0.202 0.949,-0.198 0.588,0.007 0.29,0.061 0.813,-0.333 0.227,-0.17 0.398,-0.318 0.622,-0.485 0.879,-0.657 2.057,-1.222 3.191,-1.316 -0.012,-0.138 -0.048,-0.192 -0.077,-0.318 -0.16,-0.688 0.09,-1.2 0.319,-1.733 0.042,-0.098 0.056,-0.098 0.1,-0.18 0.108,-0.198 -0.026,-0.217 -0.026,-0.457l0 -0.356c0,-0.913 1.462,-1.803 2.422,-0.881 0.589,0.566 0.244,0.793 0.632,1.068 0.453,0.322 0.82,0.965 0.82,1.513 0,0.842 -0.398,1.801 -1.061,2.259 -0.204,0.141 -0.406,0.247 -0.679,0.31 0.115,0.172 2.013,1.738 2.323,2.027 0.225,0.209 0.248,0.192 0.484,0.464 0.171,-0.64 0.91,-0.593 0.91,-0.119 0,0.248 -0.03,0.22 -0.151,0.404l-0.861 1.352c-0.119,0.196 -0.233,0.35 -0.333,0.537 0.072,0.083 0.124,0.146 0.191,0.245l0.86 1.235c0.085,0.116 0.294,0.387 0.294,0.536zm-18.66 2.175l0.909 0 0 1.7 -0.909 0 0 -1.7zm16.802 -3.44c0.155,0.042 0.583,0.737 0.672,0.87l-1.186 0c0.075,-0.142 0.157,-0.277 0.252,-0.419 0.091,-0.136 0.225,-0.296 0.262,-0.451zm-17.592 0.87l0 -1.463c0,-0.246 0.113,-0.434 0.355,-0.434l0.475 0 0 1.027c0,0.485 -0.354,0.87 -0.83,0.87zm16.129 0l-4.349 0c-0.548,0 -1.067,-0.061 -1.067,0.435 0,0.215 0.182,0.395 0.395,0.395l7.551 0 0 0.909 -18.659 0 0 -0.909 7.55 0c0.263,0 0.396,-0.168 0.396,-0.435 0,-0.521 -0.785,-0.395 -1.305,-0.395l-5.218 0c0.039,-0.148 -0.001,-0.004 0.033,-0.086 0.003,-0.007 0.008,-0.019 0.011,-0.028 0.108,-0.253 0.074,-0.175 0.616,-0.254 2.042,-0.296 4.306,-0.446 6.134,-1.179 0.481,-0.193 0.952,-0.406 1.451,-0.605 0.526,-0.21 1.018,-0.341 1.573,-0.522 0.623,-0.203 2.663,-0.726 2.832,-1.358 0.177,0.041 0.606,0.401 0.783,0.522 0.463,0.315 1.989,1.577 2.419,1.613 -0.058,0.25 -1.087,1.674 -1.146,1.897zm-14.469 -1.146c0,-1.052 -0.102,-0.797 0.4,-0.944 1.314,-0.386 3.019,-0.752 4.349,-1.147 0.317,-0.094 0.758,-0.139 0.89,-0.335 0.082,-0.123 0.127,-0.255 0.211,-0.382 0.096,-0.145 0.146,-0.226 0.3,-0.332 0.254,-0.175 0.516,-0.3 0.926,-0.3 0.144,0 0.309,0.569 0.391,0.796l0.321 0.865c-0.24,0.055 -0.594,0.238 -0.847,0.339 -2.315,0.922 -2.251,0.803 -4.808,1.161l-2.133 0.279zm12.295 -5.377c0.306,0 0.418,0.181 0.593,0.316 0.471,0.365 1.489,1.32 1.97,1.706l1.005 0.854c0.049,0.048 0.066,0.072 0.12,0.117 0.639,0.531 0.136,0.842 -0.051,0.842 -0.288,0 -0.243,-0.01 -0.458,-0.175 -0.121,-0.093 -0.203,-0.142 -0.322,-0.232l-1.877 -1.364c-0.43,-0.293 -0.81,-0.59 -1.241,-0.894 -0.673,-0.477 -0.292,-1.17 0.261,-1.17zm-1.424 0.593c0,0.404 0.09,0.619 0.303,0.883 0.177,0.218 0.38,0.349 0.607,0.501 -0.103,0.384 -1.014,0.621 -1.498,0.796l-1.744 0.548c-0.012,-0.139 -0.218,-0.645 -0.276,-0.791 -0.054,-0.136 -0.278,-0.657 -0.278,-0.79 0,-0.064 1.173,-0.944 1.328,-1.045 0.379,-0.246 0.767,-0.439 1.197,-0.582 0.112,-0.037 0.383,-0.106 0.48,-0.152 -0.013,0.153 -0.04,0.137 -0.077,0.279 -0.032,0.125 -0.042,0.197 -0.042,0.353zm1.424 -2.332c0.23,0.019 0.52,0.239 0.775,0.294 0.344,0.074 0.224,-0.255 0.924,-0.255 0.284,0 0.539,0.218 0.791,0.277 -0.125,0.237 -0.199,0.449 -0.406,0.622 -0.581,0.487 -1.57,0.376 -1.954,-0.436 -0.094,-0.199 -0.067,-0.361 -0.13,-0.502zm0.434 -2.095c0,-0.309 0.263,-0.633 0.554,-0.633 0.297,0 0.631,0.059 0.703,0.444 0.073,0.399 -0.064,0.489 0.272,0.676 0.6,0.334 0.626,0.541 0.764,1.133 -0.447,-0.104 -0.842,-0.519 -1.705,-0.203 -0.508,0.185 -0.184,0.027 -0.785,-0.113 0.058,-0.11 0.094,-0.243 0.164,-0.349 0.132,-0.2 0.192,-0.147 0.192,-0.441 0,-0.202 -0.159,-0.286 -0.159,-0.514z"/>
   <path fill="#F41E1E" d="M9.725 12.22c0,0.582 0.791,0.582 0.791,0 0,-0.49 -0.791,-0.49 -0.791,0z"/>
  </g>
 </g>
</svg>
