<?xml version="1.0" encoding="UTF-8"?>
<!DOCTYPE svg PUBLIC "-//W3C//DTD SVG 1.1//EN" "http://www.w3.org/Graphics/SVG/1.1/DTD/svg11.dtd">
<!-- Creator: CorelDRAW 2021.5 -->
<svg xmlns="http://www.w3.org/2000/svg" xml:space="preserve" width="32px" height="54px" version="1.1" shape-rendering="geometricPrecision" text-rendering="geometricPrecision" image-rendering="optimizeQuality" fill-rule="evenodd" clip-rule="evenodd"
viewBox="0 0 11.714 19.728"
 xmlns:xlink="http://www.w3.org/1999/xlink"
 xmlns:xodm="http://www.corel.com/coreldraw/odm/2003">
 <g id="Capa_x0020_1">
  <metadata id="CorelCorpID_0Corel-Layer"/>
  <g id="_1755434950128">
   <path fill="#F41E1E" d="M9.094 9.749c0.02,0.248 0.225,0.703 0.231,0.963 -0.232,-0.111 -0.727,-0.156 -0.964,-0.27 0.091,-0.136 0.592,-0.656 0.733,-0.693zm1.935 9.979l-0.011 0c-0.346,-0.005 -0.691,-0.24 -0.691,-0.693 0,-0.145 0.025,-0.073 0.038,-0.231 -0.215,-0.05 -0.336,-0.116 -0.616,-0.116l-7.283 0c-0.28,0 -0.402,0.066 -0.617,0.116 0.011,0.12 0.039,0.136 0.039,0.269 0,0.332 -0.313,0.655 -0.655,0.655 -0.814,0 -0.951,-0.928 -0.419,-1.266 0.139,-0.088 0.115,-0.053 0.279,-0.106 0.329,-0.107 0.391,-0.439 1.527,-0.439 -0.097,-0.132 -0.217,-0.112 -0.27,-0.308 0.291,-0.077 0.327,-0.54 0.039,-0.616 0.033,-0.122 0.099,-0.136 0.191,-0.194l1.103 -0.709c0.115,-0.075 0.401,-0.194 0.401,-0.33 0,-0.366 -0.611,0.148 -0.862,0.301 -0.127,0.078 -0.178,0.112 -0.178,-0.109 0,-0.445 0.324,-1.156 0.963,-1.156 1.022,0 1.381,1.147 0.781,1.744 -0.581,0.578 -1.203,0.151 -1.397,0.106 -0.129,0.086 -0.671,0.417 -0.732,0.501 0.227,0.152 0.326,0.265 0.602,0.399 0.763,0.369 1.632,0.134 2.163,-0.408 1.11,-1.133 0.407,-3.228 -1.455,-3.228 0.062,-0.117 0.285,-0.517 0.308,-0.616 1.215,0.283 0.655,0.218 1.287,0.486 0.117,0.049 0.326,0.098 0.447,0.13 0.323,0.086 0.608,0.162 0.948,0.246 0.673,0.168 0.927,0.342 1.742,0.093 0.079,-0.024 0.241,-0.086 0.329,-0.133 0.308,-0.167 0.196,-0.215 0.565,-0.129 0.017,-0.21 0.082,-0.502 0.125,-0.722 0.037,-0.19 0.106,-0.512 0.106,-0.742 0,-0.017 -0.38,-1.475 -0.391,-1.497 -0.103,-0.195 -1.305,-0.164 -1.305,-0.584 0,-0.238 0.744,-0.888 0.886,-0.963l-0.578 -2.158 -0.742 -0.066c-0.475,-0.063 -0.656,0.071 -0.529,-0.473 0.161,-0.038 0.361,-0.112 0.539,-0.116 0.027,0.056 0.045,-0.069 0,0.116 0.223,0 0.321,0.038 0.578,0.038 -0.008,-0.102 -0.041,-0.235 -0.077,-0.308 0.141,-0.012 0.317,-0.082 0.463,-0.116l1.441 5.341c0.26,1.054 0.219,0.783 0.012,1.97 -0.016,0.092 -0.057,0.245 -0.066,0.357 0.474,0.111 0.321,0.378 0.241,0.78l-0.626 3.073c0.559,0 0.909,0.096 1.243,0.337 0.18,0.13 0.799,0.16 0.799,0.781 0,0.467 -0.341,0.694 -0.685,0.693z"/>
   <path fill="#F41E1E" d="M0.655 7.976c0,1.414 0.914,1.274 1.081,1.616l0.758 1.863c0.081,0.203 0.203,0.416 0.166,0.53l-1.787 3.454c-0.517,1.025 0.296,1.477 0.514,1.477l0.462 0c0.076,0 0.514,-0.294 0.569,-0.357 0.091,-0.104 0.244,-0.463 0.34,-0.623 0.235,-0.393 0.416,-0.834 0.645,-1.243l0.643 -1.245c0.108,-0.217 0.207,-0.415 0.321,-0.642 0.36,-0.723 0.435,-0.8 0.039,-1.683l-0.866 -2.14c-0.084,-0.204 -0.255,-0.492 -0.235,-0.704 0.085,-0.898 0.609,-1.947 0.702,-2.345 -0.326,-0.488 -1.194,-0.849 -1.194,-1.503 0,-0.368 0.326,-0.732 0.693,-0.732 0.314,0 0.412,0.001 0.685,0.279 0.117,0.12 0.269,0.332 0.433,0.376 0,-0.844 -0.175,-1.426 -1.195,-1.426 -1.081,0 -1.608,1.085 -2.004,1.888 -0.419,0.851 -0.77,2.171 -0.77,3.16z"/>
   <path fill="#F41E1E" d="M4.046 9.864c0.235,0 0.412,0.06 0.616,0.077l0.165 1.685c0.03,0.237 0.063,0.592 0.094,0.831l0.088 0.875c0.419,0.098 0.217,0.247 1.311,0.505 0.228,0.053 0.364,-0.105 0.474,-0.339 0.123,-0.263 0.091,-0.468 0.064,-0.781 -0.04,-0.448 -0.35,-3.749 -0.476,-4.033 -0.288,-0.646 -1.196,-0.594 -2.026,-0.71 -0.984,-0.138 -0.83,-0.196 -0.891,0.234 -0.053,0.376 0.479,1.221 0.581,1.656z"/>
   <path fill="#F41E1E" d="M5.587 3.391c1.271,0 2.395,-1.455 1.273,-2.853 -0.326,-0.405 -0.834,-0.538 -1.388,-0.538 -0.794,0 -1.59,0.826 -1.559,1.724 0.031,0.916 0.754,1.667 1.674,1.667z"/>
   <path fill="#F41E1E" d="M2.967 4.431c0,0.382 0.485,0.734 0.838,1.089l0.347 0.307c0.228,0.211 0.432,0.434 0.654,0.657 0.778,0.781 0.817,0.538 1.845,0.282 0.338,-0.084 2.446,-0.594 2.604,-0.709 0.508,-0.367 0.223,-1.125 -0.316,-1.125 -0.178,0 -0.59,0.128 -0.786,0.177 -0.364,0.091 -2.159,0.594 -2.373,0.594 -0.104,0 -1.745,-1.85 -2.119,-1.85 -0.199,0 -0.38,-0.013 -0.547,0.186 -0.061,0.071 -0.147,0.27 -0.147,0.392z"/>
   <path fill="#F41E1E" d="M0 9.672c0.974,0.515 1.547,0.111 1.675,0.482l0.474 1.684c0.046,0.162 0.11,0.325 0.124,0.492 0.074,-0.054 0.232,-0.308 0.232,-0.424 0,-0.058 -0.305,-0.76 -0.353,-0.88 -0.115,-0.288 -0.237,-0.572 -0.358,-0.875 -0.416,-1.043 -0.133,-0.23 -0.88,-0.97 -0.166,-0.165 -0.153,-0.196 -0.259,-0.396 -0.325,0.076 -0.632,0.614 -0.655,0.887z"/>
   <path fill="#F41E1E" d="M9.556 5.125c0.081,0.153 0.116,0.224 0.116,0.462 0.184,-0.043 0.853,-0.251 0.947,-0.362 0.041,-0.047 0.401,-0.901 0.401,-0.948 0,-0.214 -0.281,-0.518 -0.515,0.025 -0.279,0.646 -0.133,0.565 -0.481,0.674 -0.146,0.046 -0.309,0.112 -0.468,0.149z"/>
   <path fill="#F41E1E" d="M0.925 17.262c0,0.119 0.035,0.232 0.154,0.232l1.194 0c0.22,0 0.2,-0.424 -0.038,-0.424l-1.118 0c-0.089,0 -0.192,0.102 -0.192,0.192z"/>
  </g>
 </g>
</svg>
