<?xml version="1.0" encoding="UTF-8"?>
<!DOCTYPE svg PUBLIC "-//W3C//DTD SVG 1.1//EN" "http://www.w3.org/Graphics/SVG/1.1/DTD/svg11.dtd">
<!-- Creator: CorelDRAW 2021.5 -->
<svg xmlns="http://www.w3.org/2000/svg" xml:space="preserve" width="41px" height="41px" version="1.1" shape-rendering="geometricPrecision" text-rendering="geometricPrecision" image-rendering="optimizeQuality" fill-rule="evenodd" clip-rule="evenodd"
viewBox="0 0 1.039 1.039"
 xmlns:xlink="http://www.w3.org/1999/xlink"
 xmlns:xodm="http://www.corel.com/coreldraw/odm/2003">
 <g id="Capa_x0020_1">
  <metadata id="CorelCorpID_0Corel-Layer"/>
  <path fill="white" d="M0.477 0.998l0 -0.03c0.078,0 0.053,-0.001 0.13,0.025 0.019,0.006 0.021,0.003 0.022,0.013 -0.008,0.005 -0.119,0.002 -0.138,0.002 -0.007,0 -0.014,-0.003 -0.014,-0.01zm0.562 0.025l0 0.002c0,0.007 -0.004,0.014 -0.012,0.014l-1.015 0c-0.008,0 -0.012,-0.007 -0.012,-0.014l0 -0.002c0,-0.008 0.004,-0.015 0.012,-0.015l0.434 0c0,-0.017 -0.002,-0.024 0,-0.039 0.001,-0.007 -0.001,-0.029 -0.002,-0.037 -0.006,-0.04 -0.015,-0.145 -0.018,-0.189 -0.004,-0.055 -0.016,-0.138 -0.018,-0.189 -0.001,-0.017 -0.006,-0.018 -0.016,-0.027 -0.004,-0.004 -0.006,-0.006 -0.01,-0.01l-0.349 -0.331c-0.019,-0.019 -0.043,-0.035 -0.028,-0.065 0.001,-0.003 0.006,-0.011 0.008,-0.013 0.021,-0.023 0.044,-0.011 0.063,0.001 0.021,0.012 0.157,0.086 0.163,0.097 0.005,0.009 -0.003,0.023 -0.014,0.023 -0.008,0 -0.057,-0.029 -0.067,-0.035l-0.034 0.035c0.02,0.014 0.034,0.034 0.052,0.049l0.035 0.033c0.006,0.007 0.011,0.009 0.017,0.015 0.011,0.011 0.021,0.022 0.032,0.033l0.17 0.161c0.01,0.01 0.007,0.008 0.009,0.025 0.003,0.031 0.004,0.061 0.008,0.091l0.028 0.301c0.045,0 0.049,0.006 0.051,-0.011l0.064 -0.383c0.001,-0.013 -0.018,-0.029 -0.022,-0.042 -0.007,0.005 -0.008,0.022 -0.01,0.032 -0.003,0.011 -0.006,0.022 -0.009,0.034 -0.005,0.022 -0.009,0.058 -0.025,0.058 -0.038,0 -0.001,-0.061 0.002,-0.095 -0.008,0.005 -0.009,0.006 -0.016,0.012 -0.003,0.003 -0.014,0.012 -0.017,0.012 -0.018,0 -0.025,-0.018 -0.012,-0.029 0.013,-0.011 0.057,-0.046 0.065,-0.056 -0.002,-0.01 -0.018,-0.031 -0.023,-0.04 -0.026,-0.043 -0.018,-0.044 -0.06,-0.066l-0.06 -0.033c-0.007,-0.004 -0.013,-0.007 -0.02,-0.011l-0.099 -0.055c-0.023,-0.012 -0.013,-0.033 0,-0.033 0.012,0 0.021,0.008 0.031,0.014 0.01,0.005 0.018,0.01 0.027,0.015 0.019,0.011 0.036,0.02 0.054,0.03l0.107 0.059 0.049 -0.036c0.009,-0.007 0.008,-0.005 0.008,-0.019 -0.031,-0.007 -0.015,-0.018 -0.032,-0.023 -0.004,-0.001 -0.01,-0.002 -0.014,-0.003 -0.036,-0.013 -0.043,-0.054 -0.018,-0.081 0.029,-0.032 0.047,-0.005 0.074,-0.002 0.006,-0.022 0.047,-0.001 0.067,0.005 0.01,0.003 0.045,0.017 0.053,0.017 0.003,0 0.028,-0.024 0.037,-0.026 -0.001,-0.011 -0.007,-0.02 -0.009,-0.032 -0.006,-0.033 0.002,-0.068 0.018,-0.093 0.046,-0.065 0.14,-0.076 0.196,-0.018 0.006,0.007 0.004,0.006 0.012,0.005 0.029,-0.003 0.052,0.004 0.07,0.022 0.042,0.042 0.028,0.115 -0.029,0.134 -0.006,0.002 -0.011,0.003 -0.019,0.004 -0.004,0.001 -0.006,0.001 -0.008,0.001 -0.032,0 -0.012,-0.001 -0.04,0.022 -0.008,0.005 -0.021,0.013 -0.031,0.015 0.002,0.009 0.004,0.008 0.007,0.015 0.006,0.014 0.025,0.075 -0.005,0.075 -0.022,0 -0.015,-0.021 -0.017,-0.039 -0.001,-0.017 -0.009,-0.026 -0.016,-0.038 -0.013,0.007 -0.025,0.015 -0.04,0.023l-0.118 0.068c0.011,0.02 0.024,0.038 0.037,0.057 0.009,-0.007 0.063,-0.049 0.073,-0.049 0.009,0 0.016,0.006 0.016,0.016 0,0.013 -0.034,0.032 -0.044,0.039 -0.059,0.044 -0.048,0.046 -0.088,-0.014 -0.011,-0.017 -0.023,-0.034 -0.032,-0.051 -0.014,0.003 -0.028,0.015 -0.039,0.022l0.062 0.1c0.004,0.006 0.009,0.015 0.014,0.019 0.029,0.027 0.06,0.01 0.087,-0.011 0.039,-0.029 0.063,-0.032 0.076,-0.084 0.002,-0.008 0.006,-0.016 0.015,-0.016 0.032,0 0.017,0.065 -0.043,0.105 -0.027,0.018 -0.061,0.052 -0.095,0.052 -0.048,0 -0.045,-0.017 -0.065,-0.023 -0.014,0.009 -0.026,0.02 -0.04,0.03 -0.012,0.008 -0.01,0.004 -0.013,0.021l-0.059 0.355c-0.001,0.01 -0.004,0.021 -0.004,0.031 0.009,0 0.025,0.007 0.033,0.009 0.034,0.012 0.073,0.015 0.073,0.055l0.365 0c0.008,0 0.012,0.007 0.012,0.015zm-0.513 -0.652l0.046 -0.034c0.005,0.008 0.009,0.009 0.01,0.018 0.003,0.016 0.001,0.01 0.008,0.021l0.065 0.105c-0.011,0.006 -0.031,0.024 -0.044,0.032 -0.014,-0.025 -0.047,-0.078 -0.064,-0.106 -0.008,-0.013 -0.015,-0.023 -0.021,-0.036zm0.067 -0.061c0,-0.011 -0.001,-0.02 0.02,-0.02 0.008,0 0.018,0.019 0.02,0.026 -0.01,0.006 -0.017,0.012 -0.026,0.017 -0.006,-0.011 -0.014,-0.018 -0.014,-0.023zm0.129 -0.016zm0 0zm0 0l0.019 -0.034c0.005,-0.009 0.018,-0.026 0.02,-0.035 0.012,0.001 0.017,0.014 0.045,0.02 -0.002,0.002 -0.003,0.003 -0.005,0.004l-0.079 0.045zm-0.099 -0.034c-0.036,-0.009 -0.033,0.01 -0.051,0.006l0.021 -0.055c0.014,0 0.047,0.017 0.065,0.018l0 0.004c-0.006,0.002 -0.031,0.021 -0.035,0.027zm0.055 0.048l-0.019 -0.012c-0.003,-0.004 -0.009,-0.013 -0.01,-0.02 0.006,-0.002 0.016,-0.01 0.021,-0.014l0.049 -0.038c0.005,-0.004 0.006,-0.005 0.012,-0.007 -0.005,0.007 -0.009,0.014 -0.013,0.022 -0.007,0.01 -0.038,0.062 -0.04,0.069zm-0.13 -0.065c-0.052,-0.004 -0.039,-0.038 -0.022,-0.038 0.009,0 0.026,0.007 0.032,0.01 -0.003,0.006 -0.008,0.022 -0.01,0.028zm-0.516 -0.105c0,-0.035 0.07,0.03 0.094,0.036 -0.006,0.012 -0.017,0.02 -0.025,0.031 -0.018,-0.013 -0.02,-0.02 -0.035,-0.032 -0.006,-0.006 -0.034,-0.027 -0.034,-0.035zm0.715 -0.01c0,-0.024 0.004,-0.025 0.008,-0.043 0.01,0.001 0.065,0.039 0.079,0.047 0,0.028 -0.009,0.05 0.01,0.087 -0.017,0 -0.026,-0.002 -0.039,-0.007 -0.033,-0.014 -0.058,-0.05 -0.058,-0.084zm0.209 -0.055c0.014,0 0.027,0.005 0.035,0.012 0.028,0.023 0.021,0.086 -0.033,0.087 0.014,-0.028 0.011,-0.072 -0.002,-0.099zm-0.02 0.047c0,0.023 -0.004,0.042 -0.018,0.061 -0.008,0.009 -0.027,0.029 -0.041,0.03 -0.026,-0.039 -0.008,-0.067 -0.008,-0.087 0,-0.012 -0.031,-0.026 -0.045,-0.035 -0.016,-0.011 -0.032,-0.021 -0.049,-0.03 0.003,-0.005 0.013,-0.012 0.019,-0.016 0.059,-0.035 0.142,0.011 0.142,0.077z"/>
 </g>
</svg>
