<?xml version="1.0" encoding="UTF-8"?>
<!DOCTYPE svg PUBLIC "-//W3C//DTD SVG 1.1//EN" "http://www.w3.org/Graphics/SVG/1.1/DTD/svg11.dtd">
<!-- Creator: CorelDRAW 2021.5 -->
<svg xmlns="http://www.w3.org/2000/svg" xml:space="preserve" width="50px" height="55px" version="1.1" shape-rendering="geometricPrecision" text-rendering="geometricPrecision" image-rendering="optimizeQuality" fill-rule="evenodd" clip-rule="evenodd"
viewBox="0 0 1.291 1.425"
 xmlns:xlink="http://www.w3.org/1999/xlink"
 xmlns:xodm="http://www.corel.com/coreldraw/odm/2003">
 <g id="Capa_x0020_1">
  <metadata id="CorelCorpID_0Corel-Layer"/>
  <path fill="white" d="M0.433 1.378l-0.082 0.001 0 -0.328c0.036,-0.028 0.051,-0.053 0.076,-0.078 0.112,-0.113 0.033,-0.084 0.304,-0.084 0.012,0 0.027,-0.001 0.039,0 0.027,0.001 0.032,0.018 0.064,0.053l0.075 0.08c0.027,0.032 0.031,0.017 0.032,0.046 0.005,0.097 0,0.212 0,0.311l-0.082 0c0.001,-0.048 0,-0.096 0,-0.144 0,-0.07 0.007,-0.05 -0.049,-0.095 -0.026,-0.021 -0.053,-0.042 -0.081,-0.062 -0.013,-0.011 -0.027,-0.021 -0.039,-0.031 -0.054,-0.042 -0.034,-0.04 -0.128,0.031l-0.12 0.093c-0.015,0.014 -0.01,0.04 -0.01,0.064 0,0.048 0,0.096 0.001,0.143zm0.102 -0.867c-0.018,-0.151 0.208,-0.171 0.222,-0.026 0.014,0.149 -0.205,0.166 -0.222,0.026zm0.497 -0.465l0.095 0 0 0.271 -0.095 0 0 -0.271zm-0.867 0l0.094 0 0 0.271 -0.094 0.001 0 -0.272zm1.006 0.066c0,-0.014 -0.001,-0.012 0.005,-0.022 0.015,0.003 0.012,0.003 0.012,0.022l0 0.14c0,0.017 0.003,0.012 -0.008,0.021 -0.012,-0.008 -0.009,-0.007 -0.009,-0.025l0 -0.136zm-1.067 0.004c0,-0.018 -0.004,-0.019 0.008,-0.026 0.011,0.007 0.008,0.003 0.008,0.022l0 0.136c0,0.018 0.004,0.016 -0.008,0.025 -0.009,-0.007 -0.008,-0.001 -0.008,-0.017l0 -0.14zm0.657 0.273c-0.023,-0.023 -0.064,-0.049 -0.115,-0.049 -0.051,0 -0.094,0.027 -0.116,0.05l-0.037 -0.186 0.306 0 -0.038 0.185zm0.013 0.455l-0.256 0.001c-0.015,-0.105 -0.044,-0.225 -0.064,-0.331 -0.014,-0.069 -0.055,-0.28 -0.059,-0.337 -0.002,-0.037 0.036,-0.039 0.045,-0.01 0.007,0.023 0.012,0.06 0.017,0.084 0.01,0.055 0.021,0.109 0.032,0.165 0.013,0.064 -0.013,0.107 0.026,0.164 0.066,0.099 0.199,0.093 0.26,0.003 0.045,-0.067 0.013,-0.096 0.027,-0.164 0.011,-0.054 0.022,-0.11 0.032,-0.164 0.006,-0.027 0.01,-0.056 0.016,-0.082 0.009,-0.039 0.048,-0.031 0.046,0.001 -0.002,0.061 -0.073,0.416 -0.089,0.502 -0.011,0.052 -0.027,0.115 -0.033,0.168zm-0.128 0.226c0.024,0.015 0.048,0.037 0.074,0.056 0.115,0.087 0.095,0.053 0.095,0.167 0,0.035 -0.005,0.096 0.004,0.125 0.025,0.01 0.069,0.005 0.102,0.005 0.042,0 0.065,0.01 0.065,-0.037l0 -0.318c0,-0.023 0.002,-0.03 -0.011,-0.042 -0.011,-0.011 -0.015,-0.015 -0.025,-0.026l-0.101 -0.108c-0.031,-0.03 -0.036,-0.02 -0.026,-0.069l0.051 -0.262c0.021,-0.109 0.052,-0.247 0.061,-0.357l0.053 0c0,0.08 -0.015,0.151 0.037,0.157 0.022,0.003 0.072,0.002 0.097,0.001 0.032,-0.001 0.048,-0.014 0.049,-0.045 0.069,0.003 0.062,-0.054 0.061,-0.113l0.059 0 0 -0.045 -0.058 0c-0.001,-0.06 0.009,-0.114 -0.061,-0.113 -0.005,-0.036 -0.016,-0.045 -0.054,-0.045 -0.024,0 -0.074,-0.003 -0.096,0.001 -0.048,0.007 -0.033,0.086 -0.034,0.157l-0.044 0c-0.009,-0.015 -0.011,-0.028 -0.024,-0.039 -0.028,-0.022 -0.068,-0.023 -0.092,0 -0.009,0.009 -0.012,0.019 -0.018,0.029 0,0.001 -0.002,0.005 -0.002,0.005l-0.321 0.005 -0.012 -0.023c-0.012,-0.022 -0.032,-0.035 -0.061,-0.033 -0.026,0.002 -0.048,0.017 -0.058,0.037 -0.01,0.022 0.007,0.019 -0.052,0.019 -0.001,-0.173 0.018,-0.16 -0.134,-0.158 -0.035,0 -0.046,0.012 -0.051,0.045 -0.069,0 -0.059,0.053 -0.06,0.113l-0.059 0.001 0.001 0.044 0.058 0c0.001,0.059 -0.008,0.116 0.062,0.113 0,0.033 0.019,0.045 0.053,0.045 0.144,0.001 0.131,0.019 0.13,-0.158l0.052 0c0.009,0.088 0.122,0.64 0.117,0.656 -0.003,0.007 -0.162,0.167 -0.166,0.179l-0.001 0.339c0,0.055 0.016,0.045 0.065,0.045 0.129,0 0.106,0.022 0.106,-0.138 0,-0.078 -0.009,-0.079 0.023,-0.103 0.044,-0.031 0.103,-0.084 0.146,-0.112z"/>
 </g>
</svg>
