<?xml version="1.0" encoding="UTF-8"?>
<!DOCTYPE svg PUBLIC "-//W3C//DTD SVG 1.1//EN" "http://www.w3.org/Graphics/SVG/1.1/DTD/svg11.dtd">
<!-- Creator: CorelDRAW 2021.5 -->
<svg xmlns="http://www.w3.org/2000/svg" xml:space="preserve" width="44px" height="50px" version="1.1" shape-rendering="geometricPrecision" text-rendering="geometricPrecision" image-rendering="optimizeQuality" fill-rule="evenodd" clip-rule="evenodd"
viewBox="0 0 0.943 1.065"
 xmlns:xlink="http://www.w3.org/1999/xlink"
 xmlns:xodm="http://www.corel.com/coreldraw/odm/2003">
 <g id="Capa_x0020_1">
  <metadata id="CorelCorpID_0Corel-Layer"/>
  <g id="_1943615570592">
   <path fill="white" d="M0.692 0.904c-0.008,-0.014 -0.007,-0.011 -0.005,-0.03l0.022 -0.233c0.033,0.038 0.08,0.112 0.102,0.135l-0.119 0.128zm-0.559 -0.129c0.019,-0.019 0.034,-0.047 0.051,-0.069 0.017,-0.023 0.032,-0.044 0.051,-0.065l0.022 0.262c-0.033,-0.034 -0.098,-0.092 -0.124,-0.128zm0.384 -0.096c0.001,0.001 0.002,0.002 0.003,0.002 0.002,0.001 0.003,0.002 0.004,0.002l0.017 0.009c0.001,0.023 -0.037,0.117 -0.047,0.134 -0.027,0.002 -0.075,-0.017 -0.093,-0.028 0.001,-0.037 0.024,-0.067 0.033,-0.101 0.006,-0.024 -0.02,-0.07 -0.03,-0.094l-0.066 -0.16c-0.013,-0.024 0.001,-0.01 -0.017,-0.018 -0.107,0.001 -0.145,0.049 -0.188,0.114l-0.117 0.184c-0.051,0.097 0.032,0.153 0.074,0.194 0.019,0.02 0.054,0.059 0.074,0.073 0.054,0.037 0.087,-0.014 0.099,-0.026l0.007 0.101 0.403 -0.001 0.007 -0.094c0.077,0.072 0.095,0.029 0.177,-0.055 0.041,-0.043 0.123,-0.099 0.068,-0.195 -0.037,-0.064 -0.08,-0.126 -0.119,-0.187 -0.042,-0.066 -0.086,-0.11 -0.194,-0.107l-0.102 0.249 0.007 0.004z"/>
   <path fill="white" d="M0.306 0.18c0.011,0.088 0.083,0.157 0.184,0.148 0.083,-0.007 0.156,-0.084 0.147,-0.179 -0.023,-0.224 -0.355,-0.18 -0.331,0.031z"/>
   <polygon fill="white" points="0.376,0.426 0.472,0.653 0.565,0.425 "/>
  </g>
 </g>
</svg>
