<?xml version="1.0" encoding="UTF-8"?>
<!DOCTYPE svg PUBLIC "-//W3C//DTD SVG 1.1//EN" "http://www.w3.org/Graphics/SVG/1.1/DTD/svg11.dtd">
<!-- Creator: CorelDRAW 2021.5 -->
<svg xmlns="http://www.w3.org/2000/svg" xml:space="preserve" width="182px" height="59px" version="1.1" shape-rendering="geometricPrecision" text-rendering="geometricPrecision" image-rendering="optimizeQuality" fill-rule="evenodd" clip-rule="evenodd"
viewBox="0 0 34.557 11.254"
 xmlns:xlink="http://www.w3.org/1999/xlink"
 xmlns:xodm="http://www.corel.com/coreldraw/odm/2003">
 <g id="Capa_x0020_1">
  <metadata id="CorelCorpID_0Corel-Layer"/>
  <g id="_1908198244432">
   <path fill="black" d="M5.351 4.978l3.503 0c-0.035,0.072 -0.046,0.153 -0.072,0.243l-0.479 1.783 -3.483 0 -0.391 1.458c-0.049,0.166 -0.088,0.324 -0.132,0.498 -0.084,0.333 -0.178,0.65 -0.264,0.975 -0.032,0.125 -0.253,0.901 -0.256,1.004 0.334,0.16 1.334,0.315 1.712,0.315 0.858,0 1.732,-0.138 2.493,-0.518 0.62,-0.311 0.726,-0.379 1.262,-0.803 0.277,-0.218 0.703,-0.675 0.908,-0.961 0.026,-0.037 0.043,-0.064 0.073,-0.104 0.571,-0.762 1.029,-2.034 1.029,-3.103 0,-0.586 -0.043,-1.148 -0.214,-1.695 -0.016,-0.052 -0.043,-0.154 -0.062,-0.194l-5.351 0c-0.011,0.132 -0.272,0.948 -0.276,1.102z"/>
   <path fill="#DF171D" d="M0 5.509c0,0.921 0.183,1.936 0.629,2.696 0.201,0.345 0.248,0.485 0.534,0.843 0.097,0.12 0.414,0.528 0.509,0.553 0.003,-0.099 0.199,-0.832 0.236,-0.984l0.756 -2.963c0.028,-0.111 0.993,-3.851 0.995,-3.962l5.981 0c-0.044,-0.067 -0.103,-0.113 -0.162,-0.172 -0.166,-0.166 -0.384,-0.332 -0.571,-0.472 -0.284,-0.213 -0.552,-0.352 -0.867,-0.51 -0.53,-0.268 -1.429,-0.538 -2.216,-0.538 -0.653,0 -0.95,0.003 -1.602,0.169 -0.711,0.181 -1.724,0.672 -2.24,1.164 -0.383,0.365 -0.667,0.617 -0.975,1.071 -0.094,0.139 -0.182,0.273 -0.265,0.423 -0.455,0.816 -0.742,1.703 -0.742,2.682z"/>
   <path fill="#F60D0D" d="M22.865 3.601l-0.104 0 0 -0.942c0.475,0 0.419,0.028 0.419,0.698 0,0.196 -0.121,0.244 -0.315,0.244zm-1.221 2.967l1.117 0 0 -1.92c0.186,0 0.372,-0.004 0.386,0.277 0.023,0.439 -0.074,1.313 0.067,1.608 0.315,0.073 0.78,0.035 1.152,0.035 -0.223,-0.466 0.211,-1.987 -0.419,-2.408 0.31,-0.462 0.384,-0.463 0.384,-1.222 0,-0.81 -0.31,-1.326 -1.117,-1.326l-1.57 0 0 4.956z"/>
   <path fill="#F60D0D" d="M13.791 5.521l-0.174 0 0 -2.862c0.2,0 0.418,-0.034 0.418,0.244l0 2.373c0,0.163 -0.081,0.245 -0.244,0.245zm-1.291 1.047l1.466 0c0.389,0 0.757,-0.175 0.933,-0.393 0.197,-0.244 0.288,-0.608 0.288,-1.038l0 -2.094c0,-0.817 -0.358,-1.431 -1.221,-1.431l-1.466 0 0 4.956z"/>
   <path fill="#F60D0D" d="M29.287 5.242l0 -2.304c0,-0.126 0.029,-0.195 0.07,-0.279 0.2,-0.048 0.072,-0.057 0.314,0 0.041,0.084 0.07,0.153 0.07,0.279l0 2.304c0,0.126 -0.029,0.194 -0.07,0.279 -0.2,0.048 -0.072,0.056 -0.314,0 -0.041,-0.085 -0.07,-0.153 -0.07,-0.279zm-1.117 -2.478l0 2.652c0,0.658 0.498,1.187 1.222,1.187 0.426,0 0.815,-0.008 1.144,-0.357 0.18,-0.19 0.322,-0.538 0.322,-0.9l0 -2.513c0,-0.712 -0.486,-1.256 -1.152,-1.256 -0.456,0 -0.832,-0.006 -1.179,0.321 -0.175,0.166 -0.357,0.536 -0.357,0.866z"/>
   <path fill="#F60D0D" d="M16.444 2.694c0,1.315 0.286,1.306 1.132,1.939 0.451,0.336 0.414,0.923 0.124,0.923 -0.094,0 -0.096,-0.017 -0.174,-0.035 -0.063,-0.269 -0.035,-0.517 -0.035,-0.838l-1.047 0 0 0.698c0,0.676 0.447,1.222 1.116,1.222 0.513,0 1.064,-0.015 1.337,-0.584 0.323,-0.673 0.206,-1.709 -0.589,-2.258 -0.383,-0.263 -0.748,-0.419 -0.748,-0.893 0,-0.332 0.419,-0.332 0.419,0l0 0.489 1.082 0c0,-0.769 -0.123,-1.78 -1.152,-1.78 -0.456,0 -0.789,-0.021 -1.126,0.304 -0.181,0.174 -0.339,0.474 -0.339,0.813z"/>
   <path fill="#F60D0D" d="M32.498 6.568l1.117 0 0 -1.955 0.768 0 0 -1.047 -0.768 0 0 -0.907 0.837 0c0.081,0 0.105,-0.024 0.105,-0.105l0 -0.942 -2.059 0 0 4.956z"/>
   <polygon fill="#F60D0D" points="19.096,2.659 19.759,2.659 19.759,6.568 20.911,6.568 20.911,2.659 21.574,2.659 21.574,1.612 19.096,1.612 "/>
   <polygon fill="#F60D0D" points="25.623,2.659 26.286,2.659 26.286,6.568 27.437,6.568 27.437,2.659 28.101,2.659 28.101,1.612 25.623,1.612 "/>
   <polygon fill="#F60D0D" points="24.436,6.568 25.553,6.568 25.553,1.612 24.436,1.612 "/>
   <polygon fill="#F60D0D" points="15.257,6.568 16.374,6.568 16.374,1.612 15.257,1.612 "/>
   <path fill="black" fill-rule="nonzero" d="M16.745 7.896l-0.168 0.124c-0.105,-0.137 -0.23,-0.243 -0.372,-0.316 -0.142,-0.074 -0.288,-0.11 -0.437,-0.11 -0.168,0 -0.328,0.045 -0.482,0.135 -0.155,0.09 -0.275,0.21 -0.364,0.359 -0.088,0.15 -0.132,0.31 -0.132,0.481 0,0.232 0.083,0.429 0.248,0.592 0.165,0.163 0.367,0.244 0.603,0.244 0.142,0 0.278,-0.029 0.409,-0.087 0.13,-0.058 0.236,-0.136 0.316,-0.232 0.082,-0.097 0.141,-0.216 0.178,-0.359l-0.769 0 0 -0.207 1.02 0c-0.021,0.321 -0.136,0.582 -0.346,0.782 -0.21,0.199 -0.471,0.299 -0.784,0.299 -0.322,0 -0.583,-0.097 -0.784,-0.292 -0.201,-0.195 -0.301,-0.44 -0.301,-0.735 0,-0.21 0.053,-0.406 0.158,-0.588 0.106,-0.182 0.252,-0.326 0.437,-0.43 0.185,-0.106 0.384,-0.158 0.598,-0.158 0.387,0 0.712,0.166 0.972,0.498z"/>
   <polygon id="_1" fill="black" fill-rule="nonzero" points="18.519,7.45 18.489,7.655 17.549,7.655 17.457,8.342 18.396,8.342 18.369,8.54 17.43,8.54 17.321,9.35 18.262,9.35 18.238,9.549 17.081,9.549 17.365,7.45 "/>
   <polygon id="_2" fill="black" fill-rule="nonzero" points="18.684,7.45 19.937,7.45 19.91,7.649 19.383,7.649 19.126,9.549 18.914,9.549 19.171,7.649 18.657,7.649 "/>
   <path id="_3" fill="black" fill-rule="nonzero" d="M20.985 7.45l0.269 0c0.264,0 0.442,0.017 0.535,0.048 0.093,0.032 0.168,0.087 0.226,0.166 0.057,0.079 0.086,0.172 0.086,0.28 0,0.112 -0.03,0.212 -0.091,0.3 -0.06,0.089 -0.142,0.152 -0.244,0.191 0.123,0.039 0.221,0.103 0.291,0.195 0.07,0.092 0.106,0.201 0.106,0.326 0,0.129 -0.031,0.239 -0.091,0.331 -0.061,0.093 -0.142,0.159 -0.244,0.2 -0.102,0.041 -0.278,0.062 -0.528,0.062l-0.599 0 0.284 -2.099zm0.185 0.199l-0.094 0.696c0.041,0.003 0.088,0.005 0.142,0.005 0.189,0 0.325,-0.015 0.409,-0.045 0.083,-0.031 0.148,-0.078 0.195,-0.144 0.046,-0.064 0.069,-0.136 0.069,-0.215 0,-0.103 -0.036,-0.179 -0.108,-0.228 -0.072,-0.048 -0.226,-0.073 -0.461,-0.073 -0.041,0 -0.091,0.001 -0.152,0.004zm-0.122 0.903l-0.107 0.798 0.282 0c0.197,0 0.333,-0.009 0.407,-0.025 0.103,-0.023 0.182,-0.066 0.236,-0.128 0.053,-0.062 0.08,-0.142 0.08,-0.24 0,-0.088 -0.022,-0.16 -0.065,-0.219 -0.043,-0.058 -0.114,-0.104 -0.214,-0.137 -0.099,-0.032 -0.247,-0.049 -0.444,-0.049l-0.175 0z"/>
   <polygon id="_4" fill="black" fill-rule="nonzero" points="23.817,7.45 23.787,7.655 22.847,7.655 22.755,8.342 23.694,8.342 23.667,8.54 22.728,8.54 22.618,9.35 23.56,9.35 23.535,9.549 22.379,9.549 22.663,7.45 "/>
   <polygon id="_5" fill="black" fill-rule="nonzero" points="23.982,7.45 25.235,7.45 25.207,7.649 24.68,7.649 24.424,9.549 24.212,9.549 24.469,7.649 23.955,7.649 "/>
   <polygon id="_6" fill="black" fill-rule="nonzero" points="25.226,7.45 26.479,7.45 26.452,7.649 25.925,7.649 25.669,9.549 25.456,9.549 25.713,7.649 25.199,7.649 "/>
   <polygon id="_7" fill="black" fill-rule="nonzero" points="27.872,7.45 27.843,7.655 26.903,7.655 26.81,8.342 27.75,8.342 27.722,8.54 26.783,8.54 26.674,9.35 27.615,9.35 27.591,9.549 26.435,9.549 26.718,7.45 "/>
   <path id="_8" fill="black" fill-rule="nonzero" d="M28.329 7.45l0.527 0c0.188,0 0.323,0.018 0.403,0.054 0.082,0.036 0.147,0.093 0.198,0.171 0.05,0.078 0.076,0.169 0.076,0.273 0,0.113 -0.03,0.218 -0.09,0.315 -0.059,0.097 -0.14,0.17 -0.243,0.218 -0.103,0.05 -0.238,0.074 -0.405,0.074l0.632 0.994 -0.238 0 -0.632 -0.994 -0.165 0 -0.134 0.994 -0.213 0 0.284 -2.099zm0.185 0.202l-0.095 0.698 0.242 0c0.18,0 0.297,-0.007 0.352,-0.021 0.093,-0.023 0.167,-0.068 0.224,-0.134 0.057,-0.068 0.085,-0.149 0.085,-0.246 0,-0.11 -0.039,-0.189 -0.119,-0.239 -0.061,-0.038 -0.17,-0.058 -0.328,-0.058l-0.361 0z"/>
  </g>
 </g>
</svg>
