<?xml version="1.0" encoding="UTF-8"?>
<!DOCTYPE svg PUBLIC "-//W3C//DTD SVG 1.1//EN" "http://www.w3.org/Graphics/SVG/1.1/DTD/svg11.dtd">
<!-- Creator: CorelDRAW 2021.5 -->
<svg xmlns="http://www.w3.org/2000/svg" xml:space="preserve" width="183px" height="51px" version="1.1" shape-rendering="geometricPrecision" text-rendering="geometricPrecision" image-rendering="optimizeQuality" fill-rule="evenodd" clip-rule="evenodd"
viewBox="0 0 10.372 2.903"
 xmlns:xlink="http://www.w3.org/1999/xlink"
 xmlns:xodm="http://www.corel.com/coreldraw/odm/2003">
 <g id="Capa_x0020_1">
  <metadata id="CorelCorpID_0Corel-Layer"/>
  <g id="_1755895704624">
   <path fill="#DE171D" d="M1.38 1.284l0.904 0 -0.107 0.391c-0.011,0.043 -0.025,0.088 -0.035,0.132l-0.899 0c-0.009,0.04 -0.023,0.081 -0.033,0.123 -0.011,0.045 -0.022,0.085 -0.034,0.129l-0.068 0.252c-0.021,0.086 -0.046,0.168 -0.068,0.252 -0.011,0.042 -0.023,0.087 -0.034,0.128l-0.032 0.131c0.086,0.041 0.344,0.081 0.442,0.081 0.289,0 0.507,-0.054 0.76,-0.195 0.09,-0.05 0.13,-0.084 0.209,-0.146 0.019,-0.015 0.027,-0.025 0.045,-0.041 0.045,-0.04 0.043,-0.034 0.089,-0.089 0.035,-0.042 0.062,-0.065 0.1,-0.118 0.006,-0.009 0.011,-0.016 0.018,-0.027 0.148,-0.196 0.266,-0.524 0.266,-0.8 0,-0.151 -0.011,-0.296 -0.055,-0.437 -0.005,-0.013 -0.011,-0.04 -0.016,-0.05l-1.381 0c-0.002,0.034 -0.07,0.244 -0.071,0.284z"/>
   <path fill="#DE171D" d="M0 1.421c0,0.238 0.047,0.499 0.162,0.695 0.012,0.02 0.019,0.04 0.032,0.06 0.023,0.038 0.043,0.074 0.069,0.108l0.078 0.1c0.016,0.02 0.028,0.03 0.043,0.048 0.015,0.018 0.024,0.038 0.047,0.045 0.001,-0.033 0.116,-0.467 0.126,-0.509 0.043,-0.172 0.087,-0.338 0.13,-0.509 0.007,-0.029 0.256,-0.994 0.257,-1.023l1.543 0c-0.046,-0.068 -0.235,-0.199 -0.297,-0.236 -0.178,-0.107 -0.445,-0.2 -0.688,-0.2 -0.168,0 -0.245,0.001 -0.413,0.044 -0.088,0.022 -0.185,0.057 -0.257,0.093 -0.09,0.046 -0.243,0.132 -0.321,0.207 -0.017,0.016 -0.028,0.023 -0.045,0.04 -0.064,0.065 -0.112,0.11 -0.167,0.184 -0.014,0.018 -0.026,0.033 -0.039,0.052 -0.024,0.036 -0.047,0.07 -0.069,0.109 -0.021,0.039 -0.043,0.076 -0.061,0.117 -0.037,0.087 -0.065,0.162 -0.089,0.26 -0.023,0.089 -0.041,0.205 -0.041,0.315z"/>
   <path fill="white" d="M6.702 0.94l-0.033 0 0 -0.296c0.149,0 0.131,0.009 0.131,0.219 0,0.062 -0.038,0.077 -0.098,0.077zm-0.384 0.931l0.351 0 0 -0.602c0.058,0 0.117,-0.002 0.121,0.086 0.007,0.138 -0.023,0.413 0.021,0.505 0.099,0.023 0.245,0.011 0.362,0.011 -0.07,-0.146 0.066,-0.623 -0.132,-0.756 0.097,-0.145 0.121,-0.145 0.121,-0.383 0,-0.255 -0.098,-0.417 -0.351,-0.417l-0.493 0 0 1.556z"/>
   <path fill="white" d="M3.853 1.543l-0.055 0 0 -0.899c0.063,0 0.131,-0.011 0.131,0.077l0 0.745c0,0.051 -0.025,0.077 -0.076,0.077zm-0.406 0.328l0.46 0c0.123,0 0.238,-0.055 0.293,-0.123 0.062,-0.077 0.091,-0.191 0.091,-0.326l0 -0.657c0,-0.257 -0.112,-0.45 -0.384,-0.45l-0.46 0 0 1.556z"/>
   <path fill="white" d="M8.718 1.455l0 -0.723c0,-0.04 0.009,-0.061 0.022,-0.088 0.062,-0.015 0.022,-0.018 0.098,0 0.013,0.027 0.022,0.048 0.022,0.088l0 0.723c0,0.04 -0.009,0.061 -0.022,0.088 -0.063,0.015 -0.022,0.017 -0.098,0 -0.013,-0.027 -0.022,-0.048 -0.022,-0.088zm-0.351 -0.778l0 0.833c0,0.206 0.156,0.372 0.384,0.372 0.133,0 0.255,-0.002 0.359,-0.112 0.056,-0.06 0.101,-0.169 0.101,-0.282l0 -0.789c0,-0.11 -0.042,-0.217 -0.096,-0.277 -0.185,-0.208 -0.748,-0.165 -0.748,0.255z"/>
   <path fill="white" d="M4.685 0.655c0,0.413 0.09,0.41 0.356,0.609 0.141,0.105 0.13,0.29 0.039,0.29 -0.03,0 -0.03,-0.006 -0.055,-0.011 -0.02,-0.085 -0.011,-0.162 -0.011,-0.263l-0.329 0 0 0.219c0,0.212 0.141,0.383 0.351,0.383 0.161,0 0.334,-0.004 0.42,-0.183 0.051,-0.106 0.064,-0.295 0.025,-0.426 -0.106,-0.354 -0.445,-0.306 -0.445,-0.563 0,-0.105 0.132,-0.105 0.132,0l0 0.153 0.339 0c0,-0.241 -0.038,-0.559 -0.361,-0.559 -0.144,0 -0.248,-0.006 -0.354,0.096 -0.057,0.055 -0.107,0.149 -0.107,0.255z"/>
   <path fill="white" d="M9.726 1.871l0.35 0 0 -0.613 0.241 0 0 -0.329 -0.241 0 0 -0.285 0.263 0c0.026,0 0.033,-0.008 0.033,-0.033l0 -0.296 -0.646 0 0 1.556z"/>
   <polygon fill="white" points="5.518,0.644 5.726,0.644 5.726,1.871 6.088,1.871 6.088,0.644 6.296,0.644 6.296,0.315 5.518,0.315 "/>
   <polygon fill="white" points="7.567,0.644 7.775,0.644 7.775,1.871 8.137,1.871 8.137,0.644 8.345,0.644 8.345,0.315 7.567,0.315 "/>
   <polygon fill="white" points="4.313,1.871 4.664,1.871 4.664,0.315 4.313,0.315 "/>
   <polygon fill="white" points="7.195,1.871 7.545,1.871 7.545,0.315 7.195,0.315 "/>
   <path fill="white" d="M6.504 2.66c-0.208,0 -0.174,0.02 -0.252,-0.033 0.001,-0.041 0.023,-0.191 0.051,-0.223 0.044,-0.049 0.274,-0.039 0.335,0.002 0.096,0.065 0.01,0.254 -0.134,0.254zm0.011 -0.318c-0.139,0 -0.149,0.018 -0.197,-0.054 0.01,-0.044 0.021,-0.093 0.029,-0.135 0.021,-0.105 0.081,-0.084 0.223,-0.084 0.157,0 0.178,0.171 0.061,0.235 -0.017,0.01 -0.097,0.038 -0.116,0.038zm-0.317 0.351c0.077,0 0.297,0.01 0.357,-0.004 0.105,-0.023 0.202,-0.174 0.137,-0.282 -0.011,-0.018 -0.004,-0.002 -0.017,-0.027 -0.007,-0.012 -0.012,-0.026 -0.017,-0.038 0.034,-0.051 0.087,-0.089 0.087,-0.175 0,-0.165 -0.22,-0.131 -0.383,-0.131 -0.043,0 -0.037,0.059 -0.054,0.143l-0.11 0.514z"/>
   <path fill="white" d="M9.43 2.419c-0.207,0 -0.175,-0.004 -0.131,-0.229 0.027,-0.133 0.05,-0.121 0.175,-0.121 0.32,0 0.231,0.35 -0.044,0.35zm-0.274 0.274c0.048,-0.004 0.038,-0.006 0.048,-0.051 0.044,-0.209 0.027,-0.19 0.248,-0.19 0.044,0 0.067,0.059 0.077,0.098 0.011,0.047 0.022,0.097 0.032,0.143l0.033 0c-0.002,-0.12 -0.081,-0.212 -0.01,-0.273 0.018,-0.015 0.027,-0.014 0.052,-0.036 0.08,-0.072 0.122,-0.249 0.015,-0.318 -0.065,-0.041 -0.243,-0.03 -0.331,-0.03 -0.037,0 -0.032,0.026 -0.038,0.06l-0.126 0.597z"/>
   <path fill="white" d="M8.542 2.693l0.461 0 0 -0.033 -0.373 0c-0.038,-0.056 -0.034,-0.046 -0.017,-0.127 0.043,-0.208 0.038,-0.158 0.379,-0.158l0 -0.033 -0.285 0c-0.053,-0.078 -0.047,-0.031 -0.025,-0.134 0.013,-0.058 0.013,-0.113 0.064,-0.133 0.051,-0.02 0.312,-0.006 0.388,-0.006 -0.006,-0.025 -0.002,-0.033 -0.033,-0.033l-0.394 0c-0.043,0 -0.037,0.057 -0.054,0.143 -0.012,0.061 -0.028,0.107 -0.04,0.168 -0.025,0.125 -0.044,0.23 -0.071,0.346z"/>
   <path fill="white" d="M6.811 2.693l0.46 0 0 -0.033 -0.372 0c-0.038,-0.056 -0.034,-0.046 -0.018,-0.127 0.01,-0.047 0.016,-0.107 0.042,-0.133 0.05,-0.052 0.246,-0.025 0.337,-0.025l0 -0.033 -0.285 0c-0.052,-0.078 -0.047,-0.031 -0.024,-0.134 0.04,-0.183 0.028,-0.139 0.452,-0.139 -0.007,-0.025 -0.003,-0.033 -0.033,-0.033l-0.395 0c-0.042,0 -0.036,0.057 -0.053,0.143 -0.012,0.061 -0.028,0.107 -0.041,0.168 -0.024,0.125 -0.043,0.23 -0.07,0.346z"/>
   <path fill="white" d="M4.784 2.693l0.46 0 0 -0.033 -0.372 0c-0.038,-0.056 -0.035,-0.046 -0.018,-0.127 0.044,-0.208 0.039,-0.158 0.379,-0.158l0 -0.033 -0.285 0c-0.052,-0.078 -0.047,-0.031 -0.024,-0.134 0.04,-0.183 0.028,-0.139 0.452,-0.139 -0.007,-0.025 -0.003,-0.033 -0.033,-0.033l-0.395 0c-0.042,0 -0.036,0.057 -0.053,0.143l-0.111 0.514z"/>
   <path fill="white" d="M4.116 2.397c0,0.17 0.096,0.307 0.241,0.307 0.299,0 0.269,-0.098 0.293,-0.199 0.012,-0.047 0.026,-0.078 0.014,-0.108 -0.034,0.009 -0.022,-0.001 -0.035,0.032l-0.033 0.164c-0.019,0.048 -0.25,0.172 -0.401,-0.034 -0.137,-0.187 0.051,-0.49 0.249,-0.49 0.178,0 0.132,0.014 0.241,0.087 0.03,-0.035 -0.005,-0.054 -0.014,-0.062 -0.195,-0.163 -0.555,-0.004 -0.555,0.303z"/>
   <path fill="white" d="M5.463 2.069l0.176 0c0.058,0.086 0.023,0.107 -0.016,0.302 -0.011,0.057 -0.02,0.098 -0.033,0.153 -0.011,0.05 -0.028,0.118 -0.028,0.169l0.033 0 0.12 -0.57c0.011,-0.021 0.028,-0.031 0.044,-0.054l0.197 0 0 -0.033 -0.46 0c-0.026,0 -0.032,0.007 -0.033,0.033z"/>
   <path fill="white" d="M7.49 2.069l0.176 0c0.058,0.086 0.023,0.107 -0.016,0.302 -0.015,0.079 -0.061,0.26 -0.061,0.322l0.033 0 0.101 -0.491c0.033,-0.14 0.01,-0.053 0.063,-0.133l0.198 0 0 -0.033 -0.461 0c-0.026,0 -0.032,0.007 -0.033,0.033z"/>
   <path fill="white" d="M8.049 2.069l0.176 0c0.058,0.086 0.023,0.107 -0.016,0.302 -0.016,0.079 -0.061,0.26 -0.061,0.322l0.033 0c0.001,-0.055 0.022,-0.116 0.032,-0.165 0.011,-0.056 0.02,-0.11 0.034,-0.164l0.054 -0.241c0.011,-0.021 0.028,-0.031 0.044,-0.054l0.197 0 0 -0.033 -0.46 0c-0.026,0 -0.032,0.007 -0.033,0.033z"/>
  </g>
 </g>
</svg>
